<svg id="Camada_1" data-name="Camada 1" xmlns="http://www.w3.org/2000/svg" viewBox="0 0 432.34 248.27"><defs><style>.cls-1{fill:#004aac;}.cls-2{fill:#a88c8d;}.cls-3{fill:#014aac;}.cls-4{fill:#fa904e;}.cls-5{fill:#263347;}.cls-6{fill:#27313f;}.cls-7{fill:#292f36;}.cls-8{fill:#545e6e;}.cls-9{fill:#9f8a8e;}.cls-10{fill:#3e3333;}.cls-11{fill:#f99053;}.cls-12{fill:#f09159;}.cls-13{fill:#45383b;}.cls-14{fill:#403636;}.cls-15{fill:#283343;}.cls-16{fill:#273853;}.cls-17{fill:#0a489a;}.cls-18{fill:#223550;}.cls-19{fill:#7b8ca6;}.cls-20{fill:#f1915a;}.cls-21{fill:#23334b;}.cls-22{fill:#7eaadc;}.cls-23{fill:#23334a;}.cls-24{fill:#23344a;}.cls-25{fill:#757c90;}.cls-26{fill:#a4a4a4;}.cls-27{fill:#d1937f;}.cls-28{fill:#868caa;}.cls-29{fill:#8a919d;}.cls-30{fill:#887a87;}.cls-31{fill:#d69375;}.cls-32{fill:#838ca8;}.cls-33{fill:#273c5b;}.cls-34{fill:#bf9180;}.cls-35{fill:#5c6176;}.cls-36{fill:#809cc2;}.cls-37{fill:#8b96af;}.cls-38{fill:#7d6068;}.cls-39{fill:#6f7d9a;}.cls-40{fill:#f3904e;}.cls-41{fill:#ab8d8f;}.cls-42{fill:#b17f70;}.cls-43{fill:#7889ae;}.cls-44{fill:#71adf3;}.cls-45{fill:#6e7b98;}.cls-46{fill:#6b6572;}.cls-47{fill:#8d7e8c;}.cls-48{fill:#66a2f0;}.cls-49{fill:#988087;}.cls-50{fill:#838eb0;}.cls-51{fill:#22323d;}.cls-52{fill:#bd928f;}.cls-53{fill:#8c7a83;}.cls-54{fill:#545767;}.cls-55{fill:#6c9fea;}.cls-56{fill:#747b8e;}.cls-57{fill:#817d8c;}.cls-58{fill:#75707b;}.cls-59{fill:#2c4275;}.cls-60{fill:#99858b;}.cls-61{fill:#7886a9;}.cls-62{fill:#4d6497;}.cls-63{fill:#8599b3;}.cls-64{fill:#a38989;}.cls-65{fill:#797488;}.cls-66{fill:#5077a7;}.cls-67{fill:#0a4998;}.cls-68{fill:#66a1ef;}.cls-69{fill:#a88b92;}.cls-70{fill:#f2915c;}.cls-71{fill:#304d78;}.cls-72{fill:#796574;}.cls-73{fill:#4d4d6c;}.cls-74{fill:#94858d;}.cls-75{fill:#626279;}.cls-76{fill:#7e7285;}.cls-77{fill:#615f7e;}.cls-78{fill:#707c9f;}.cls-79{fill:#72637b;}.cls-80{fill:#ce8d71;}.cls-81{fill:#807278;}.cls-82{fill:#aaafba;}.cls-83{fill:#9f7572;}.cls-84{fill:#2b4d76;}.cls-85{fill:#707287;}.cls-86{fill:#736273;}.cls-87{fill:#7580a4;}.cls-88{fill:#395a87;}.cls-89{fill:#1e4978;}.cls-90{fill:#786a74;}.cls-91{fill:#7593bf;}.cls-92{fill:#6e6874;}.cls-93{fill:#a78f9c;}.cls-94{fill:#77738d;}.cls-95{fill:#727a9e;}.cls-96{fill:#688cb7;}.cls-97{fill:#284376;}.cls-98{fill:#5d536a;}.cls-99{fill:#b4877b;}.cls-100{fill:#8398af;}.cls-101{fill:#e39568;}.cls-102{fill:#70606f;}.cls-103{fill:#56567c;}.cls-104{fill:#37598d;}.cls-105{fill:#716676;}.cls-106{fill:#aa8982;}.cls-107{fill:#7598c9;}.cls-108{fill:#82819b;}.cls-109{fill:#1f3c53;}.cls-110{fill:#807992;}.cls-111{fill:#5e5e70;}.cls-112{fill:#566d8c;}.cls-113{fill:#806370;}.cls-114{fill:#918b93;}.cls-115{fill:#6e6a7f;}.cls-116{fill:#b89287;}.cls-117{fill:#756d76;}.cls-118{fill:#7d7a8e;}.cls-119{fill:#244061;}.cls-120{fill:#596f8d;}.cls-121{fill:#71758c;}.cls-122{fill:#9e8d8f;}.cls-123{fill:#494666;}.cls-124{fill:#998d98;}.cls-125{fill:#826467;}.cls-126{fill:#8c7d78;}.cls-127{fill:#8c7472;}.cls-128{fill:#7e91a6;}.cls-129{fill:#4d566d;}.cls-130{fill:#8b939e;}.cls-131{fill:#966d6b;}.cls-132{fill:#99716b;}.cls-133{fill:#203b5e;}.cls-134{fill:#626478;}.cls-135{fill:#404d6b;}.cls-136{fill:#d19774;}.cls-137{fill:#77798f;}.cls-138{fill:#3d4967;}.cls-139{fill:#2a4263;}.cls-140{fill:#777685;}.cls-141{fill:#6c809a;}.cls-142{fill:#7c6267;}.cls-143{fill:#574d53;}.cls-144{fill:#917374;}.cls-145{fill:#be9a8b;}.cls-146{fill:#956e63;}.cls-147{fill:#8e6b67;}.cls-148{fill:#997269;}.cls-149{fill:#5f6273;}.cls-150{fill:#574f67;}.cls-151{fill:#b07b68;}.cls-152{fill:#775f68;}.cls-153{fill:#b78783;}.cls-154{fill:#9188a0;}.cls-155{fill:#837285;}.cls-156{fill:#706d88;}.cls-157{fill:#7d859a;}.cls-158{fill:#8f7c8b;}.cls-159{fill:#3d5776;}.cls-160{fill:#505676;}.cls-161{fill:#c49592;}.cls-162{fill:#6b6b77;}.cls-163{fill:#6c5d73;}.cls-164{fill:#444967;}.cls-165{fill:#585b6e;}.cls-166{fill:#6a6478;}.cls-167{fill:#558bd9;}.cls-168{fill:#4b5369;}.cls-169{fill:#6d5462;}.cls-170{fill:#977569;}.cls-171{fill:#5e8dc0;}.cls-172{fill:#656679;}.cls-173{fill:#525f74;}.cls-174{fill:#bd8879;}.cls-175{fill:#484e62;}.cls-176{fill:#7e778b;}.cls-177{fill:#36507e;}.cls-178{fill:#888189;}.cls-179{fill:#7d6f7d;}.cls-180{fill:#5d5d75;}.cls-181{fill:#867b8e;}.cls-182{fill:#80788a;}.cls-183{fill:#a08484;}.cls-184{fill:#9a8b9e;}.cls-185{fill:#a98f9a;}.cls-186{fill:#536680;}.cls-187{fill:#86737b;}.cls-188{fill:#555767;}.cls-189{fill:#2e496c;}.cls-190{fill:#96888f;}.cls-191{fill:#5b97eb;}.cls-192{fill:#9c8c9f;}.cls-193{fill:#938494;}.cls-194{fill:#5c5e70;}.cls-195{fill:#5d6173;}.cls-196{fill:#5d95db;}.cls-197{fill:#5e5f6e;}.cls-198{fill:#a46b5f;}.cls-199{fill:#60688f;}.cls-200{fill:#4d556a;}.cls-201{fill:#796d7b;}.cls-202{fill:#6c6170;}.cls-203{fill:#5d546a;}.cls-204{fill:#679ce0;}.cls-205{fill:#463f5c;}.cls-206{fill:#63586d;}.cls-207{fill:#5595ea;}.cls-208{fill:#6c5967;}.cls-209{fill:#6e6373;}.cls-210{fill:#455d8e;}.cls-211{fill:#464b63;}.cls-212{fill:#fdfdfd;}.cls-213{fill:#fcfdfd;}.cls-214{fill:#f9fbfc;}.cls-215{fill:#91b2df;}.cls-216{fill:#345481;}.cls-217{fill:#a0a3a5;}.cls-218{fill:#a1a2a4;}.cls-219{fill:#94989d;}.cls-220{fill:#384e6a;}.cls-221{fill:#375175;}.cls-222{fill:#679de8;}.cls-223{fill:#0e4893;}.cls-224{fill:#494849;}.cls-225{fill:#fdfdfe;}.cls-226{fill:#6f88b1;}.cls-227{fill:#274776;}.cls-228{fill:#6f98cd;}.cls-229{fill:#536577;}.cls-230{fill:#a28f8d;}.cls-231{fill:#9d8b8e;}.cls-232{fill:#9b898a;}.cls-233{fill:#9a8c98;}.cls-234{fill:#9a8d9c;}.cls-235{fill:#847c7a;}.cls-236{fill:#9690a2;}.cls-237{fill:#0c4895;}.cls-238{fill:#094899;}.cls-239{fill:#0a4898;}.cls-240{fill:#0549a1;}.cls-241{fill:#f59155;}.cls-242{fill:#fc8f4a;}.cls-243{fill:#f39258;}.cls-244{fill:#f68f4c;}.cls-245{fill:#e89662;}.cls-246{fill:#da9c7d;}.cls-247{fill:#e69067;}.cls-248{fill:#ef9259;}.cls-249{fill:#f88e44;}.cls-250{fill:#e29268;}.cls-251{fill:#cf906f;}.cls-252{fill:#e1936b;}.cls-253{fill:#f09359;}.cls-254{fill:#f1935b;}.cls-255{fill:#fc8e44;}.cls-256{fill:#c39790;}.cls-257{fill:#e89364;}.cls-258{fill:#bf9589;}.cls-259{fill:#fc893c;}.cls-260{fill:#bd8d7b;}.cls-261{fill:#e19b75;}.cls-262{fill:#ce8e78;}.cls-263{fill:#dd947a;}.cls-264{fill:#c68973;}.cls-265{fill:#c38e87;}.cls-266{fill:#e39160;}.cls-267{fill:#dc9877;}.cls-268{fill:#2a2d34;}.cls-269{fill:#9b9d9e;}.cls-270{fill:#fb904a;}.cls-271{fill:#e99658;}.cls-272{fill:#d69763;}.cls-273{fill:#fc904b;}.cls-274{fill:#db987c;}.cls-275{fill:#bb9d9b;}.cls-276{fill:#f79153;}.cls-277{fill:#fd8c41;}.cls-278{fill:#d29579;}.cls-279{fill:#c29c9a;}.cls-280{fill:#619eea;}.cls-281{fill:#fa914d;}.cls-282{fill:#b19295;}.cls-283{fill:#b78270;}.cls-284{fill:#d58b66;}.cls-285{fill:#ac8b92;}.cls-286{fill:#f69256;}.cls-287{fill:#f59257;}.cls-288{fill:#e7926d;}.cls-289{fill:#c89688;}.cls-290{fill:#96919b;}.cls-291{fill:#c18162;}.cls-292{fill:#d29274;}.cls-293{fill:#ed9362;}.cls-294{fill:#dc9271;}.cls-295{fill:#a68c8e;}.cls-296{fill:#d49876;}.cls-297{fill:#cf9076;}.cls-298{fill:#b49691;}.cls-299{fill:#d8926d;}.cls-300{fill:#a28c98;}.cls-301{fill:#bc948f;}.cls-302{fill:#906c6d;}.cls-303{fill:#b09091;}.cls-304{fill:#cf936e;}.cls-305{fill:#bd8272;}.cls-306{fill:#f49156;}.cls-307{fill:#cc896d;}.cls-308{fill:#ad7c6f;}.cls-309{fill:#cb9171;}.cls-310{fill:#e99566;}.cls-311{fill:#cb9d98;}.cls-312{fill:#c58565;}.cls-313{fill:#db9e7c;}.cls-314{fill:#c39688;}.cls-315{fill:#bc836b;}.cls-316{fill:#d89474;}.cls-317{fill:#c7896d;}.cls-318{fill:#d29d81;}.cls-319{fill:#8e9eb3;}.cls-320{fill:#a2a2a2;}.cls-321{fill:#97a0ac;}.cls-322{fill:#87a7d4;}.cls-323{fill:#989b9f;}.cls-324{fill:#42618b;}.cls-325{fill:#716e84;}.cls-326{fill:#717084;}.cls-327{fill:#c5886c;}.cls-328{fill:#d59a7f;}.cls-329{fill:#4e587b;}.cls-330{fill:#fcfbfb;}.cls-331{fill:#9f7d86;}.cls-332{fill:#7a707d;}.cls-333{fill:#555361;}.cls-334{fill:#7a6f7b;}.cls-335{fill:#ac8a87;}.cls-336{fill:#d18c66;}.cls-337{fill:#846b73;}.cls-338{fill:#82707d;}.cls-339{fill:#956d70;}.cls-340{fill:#a17467;}.cls-341{fill:#83a1cb;}.cls-342{fill:#4371af;}.cls-343{fill:#cb9584;}.cls-344{fill:#dd9a77;}.cls-345{fill:#1755aa;}</style></defs><title>GROWTH HUB LOGO</title><path class="cls-1" d="M125.56,303.83c-16.86-24.2-17.44-64.19,4.47-87.2,2.09-1.41,3.51-3.56,5.54-5l.25,0c1.18-.78,1.74-2.31,3.25-2.7a75.85,75.85,0,0,1,22.09-10.19,40.42,40.42,0,0,0,4.81-1.59,1.23,1.23,0,0,0,1.72-.54c4-.52,8.08-.94,12.09-1.63,1.6-.27,2.07.17,2.55,1.62.79,2.36-.07,4.6-.07,6.89,0,12.27,0,24.53,0,36.79-3.47,4.54-3.85,9.55-2.27,14.87a5,5,0,0,1,0,2.77c-.45,1.28-1.53,2.05-2.39,3a8.94,8.94,0,0,1-2.79,1.87c-1.62.41-3.2,1.52-4.92.27-1.73-1.9-1.53-4.2-1-6.37.86-3.35.54-6.68.15-10-.41-3.51-3.21-5-6.42-3.68a7.24,7.24,0,0,0-2.86,7.11c.32,2.83,1.59,5.34,2.34,8,.08,1.34,1,2.05,2,2.8,2.14,2.75,1.64,8.59-.94,10.78a4.22,4.22,0,0,1-4,.8,20.64,20.64,0,0,0-5-.45c-.9,0-1.83-.14-2.49.72-1.27,1.19-2.32,2.51-1.62,4.39a3.49,3.49,0,0,0,3.69,2.39c.65,0,1.3,0,1.95,0,1.6.13,2.72-1.08,4.13-1.49,1.85-.54,3.63-.81,5.32.4.37.27.85.47.86,1,.05,3.13,2,5.75,2.33,8.83.88,4.77,2.19,9.48,1.81,14.4q0,20.79,0,41.55c0,3.16,0,6.31,0,9.47,0,4.42-.47,4.87-5,5-1.37-.1-2.51,1.06-3.92.74a1.8,1.8,0,0,1-1.23-2.2,1.55,1.55,0,0,0-.67-1.7c-.21-5.17-2-9.9-4.09-14.55a68.67,68.67,0,0,0-5-8.95l0-.07a1.71,1.71,0,0,0-1.55-1c-3.22-4.16-6.16-8.45-10.43-11.82-3.59-2.82-6.27-6.79-9.35-10.26A41.16,41.16,0,0,1,125.56,303.83Z" transform="translate(-58.57 -173.86)"/><path class="cls-1" d="M402,237.92l-2.88,5.75a6,6,0,0,0-.53,2.2c-3.58,5.79-6.08,12.14-9.13,18.2a3.31,3.31,0,0,1-2.45,1.86,11.85,11.85,0,0,1-2.22.22c-7.74.17-7.68.14-10.23-7.12-1.2-3.42-2.67-6.74-4-10.11-.69-1-1.4-1.67-2.27-.15-1.87,4.86-3.81,9.71-5.57,14.62a4.43,4.43,0,0,1-1.83,2.23,45.73,45.73,0,0,1-10.06,0l-1.08-.63a30.48,30.48,0,0,1-2.25-5.06,72.43,72.43,0,0,1-4.54-9.07c-2.2-5-4.62-9.81-7.15-14.59-.77-1.44-.76-2,.84-2.17a70.27,70.27,0,0,1,10.76,0,2.26,2.26,0,0,1,2.34,2.14,20.29,20.29,0,0,0,1.67,4.07c.53.9.52,2.11,1.53,2.75-.15,2.91,1.75,5.19,2.41,7.86.68,1.25,1.42,1.34,2.14,0a36.53,36.53,0,0,1,1.77-3.4L363.93,236a1.07,1.07,0,0,1,.08-.27c2.12-2.86,5.35-1.28,8-1.9,1.65-.38,2.37,1.33,2.94,2.77q2.77,6.89,5.68,13.73c.33.79.55,1.92,1.83,1.77,1.11-.12,1.15-1.15,1.36-1.9,1.34-4.7,3.8-9,5-13.79a3.41,3.41,0,0,1,3.81-2.66c3.3.58,6.66-.32,9.94.47a1.28,1.28,0,0,1,1,1.51A4.75,4.75,0,0,1,402,237.92Z" transform="translate(-58.57 -173.86)"/><path class="cls-1" d="M243.62,265.62c-1.14-1.72-1-3.71-1-5.6-.14-4.93.23-9.85,0-14.79-.1-2.48.44-5,0-7.49s1-3.93,3.5-4c5.33-.08,10.69-.27,16,.09,4.1.28,8.2.22,12.3.32s10.73,4,11.6,6.9c1.46,4.88.44,10.51-5,13.06-.15.07-.24.27-.51.58,3.89,1.28,4.41,4.88,5.51,8,.73,2.11-.54,3.48-2.88,3.37a14.08,14.08,0,0,0-2.25,0c-4.41.53-8,0-9.14-5.37-.67-3.3-3.71-3.55-6.41-3.72-2.33-.15-4.68.05-7-.05-1.83-.09-2.42.55-2.37,2.43,0,2.06,1,4.29-.69,6.18A60.46,60.46,0,0,1,243.62,265.62Z" transform="translate(-58.57 -173.86)"/><path class="cls-1" d="M330.59,259.93a13.39,13.39,0,0,1-8,5.21,48.05,48.05,0,0,1-18.22,1.07,17.68,17.68,0,0,1-13.51-8.08,14.87,14.87,0,0,1-2-9.85c.83-6.6,4.16-11.38,10.87-13.37,8.64-2.56,17.23-2.5,25.53.94,4.79,2,8.27,5.5,8.22,11.32,0,2.94.81,6-.73,8.76C332.28,257.38,332,259,330.59,259.93Z" transform="translate(-58.57 -173.86)"/><path class="cls-1" d="M220,256a5.55,5.55,0,0,1-1-4.43c.35-1.31,1.22-2.33,2.57-2.1,4.27.73,8.56.24,12.84.28,2.59,0,3.47,1.09,3.36,3.56-.12,2.89,0,5.79,0,8.69,0,4.26-1.69,5.25-5.58,3.29-.5-.36-1-.66-1.52-1-2.15-.76-3.69,1.18-5.64,1.28a33.38,33.38,0,0,1-19.47-.41c-2-.67-4.5-.26-5.88-2.45-.69-.56-1.62-.77-2.15-1.54a17.94,17.94,0,0,1-4.08-10.57c-.46-7.91,3.35-12.76,10.23-15.43,7.53-2.92,15.39-2.61,23-.75,4.13,1,8.25,3.4,10.3,7.74.7,1.48.06,3-1.7,2.93-5.51-.23-11,.88-16.35-2.69-4-2.64-10.88.94-11.37,6.7-.07.83-.29,1.64-.44,2.45.79,1.07,1.1,2.46,2.16,3.36a5.34,5.34,0,0,0,.16.53,23.51,23.51,0,0,0,3,2.18c2.3-.06,4.6.66,6.9,0a12.07,12.07,0,0,1,3.11-1.3.88.88,0,0,1,.48-.06c-.22-.27-.45-.06-.68,0C221.4,256.46,220.68,256.66,220,256Z" transform="translate(-58.57 -173.86)"/><path class="cls-2" d="M161,358.92c1.32.47,2-1.21,3.3-.94a4.58,4.58,0,0,0,.76.47,40.52,40.52,0,0,0,10.42.89c1.17,0,2.43-.22,3.4.75a.6.6,0,0,1-.11.78c-1.94,1.15-4.19,0-6.14.85,1.74.95,3.63.87,5.46.94,2.16.08,3.28,1,3.26,3.23,0,2.89,0,5.77,0,8.66,0,2.24-1.09,3.22-3.26,3.2a41.32,41.32,0,0,1-7-.2c-.75-.13-.63.18-.62.61-1.71,1.14-3.61.53-5.44.59-.6,0-1.43-.42-1.68.48s.52,1.08,1.08,1.42c2.27,1.39,4.84,1,7.31,1.19,1.11.08,2.23,0,3.36,0,8.47,0,6.64-.43,6.81,6.81.07,3,0,5.95,0,8.93,0,1.15.08,2.31-1.5,2.47a84.7,84.7,0,0,1-13.41-2.22,3.66,3.66,0,0,0-2.19-.06c-1.76.78-2.83.06-3.68-1.38-1.15-1.06-1.44-3.07-3.5-3.1a4.71,4.71,0,0,1-2.58-4.74,6,6,0,0,1,.28-2.14,1.51,1.51,0,0,1,.51-.61c.18-.44,2.46.66.83-1.16a2.64,2.64,0,0,1-.35-2.09c.13-1.55,1.78-2.12,2.24-3.47-.28-3.06-2.66-5.09-3.76-7.74a1,1,0,0,1-.14-.45c-.61-3.55-.62-7,2.19-9.75a5.12,5.12,0,0,1,.73-.39c.77-.27,1.8-.08,2.16-1.16C160.12,359.16,160.35,358.63,161,358.92Z" transform="translate(-58.57 -173.86)"/><path class="cls-1" d="M452,266.09c-1.46-.44-3.37,1.1-4.46-1,0-4.11.05-8.22.06-12.33,0-4.87-.12-9.73-.2-14.6-.06-3.08.58-3.64,3.56-3.72,2.15-.06,4.31-.07,6.46,0,1.56.07,2.41.77,2.26,2.48-.1,1.11,0,2.24,0,3.37v2.76c.21-2.45-.31-5.16.28-7.85.9,2.67.14,5.43.42,8.13.1,1-.49,2.07.64,2.78a1.86,1.86,0,0,0,1.9.89h11.77a2.71,2.71,0,0,0,2.23-1,3.83,3.83,0,0,0,.6-.73c.45-2.51.13-5,.22-7.55.08-2.28,1-3.52,3.43-3.34,2.85.21,5.77-.56,8.57.55a2.65,2.65,0,0,1,.57,2c0,8.9.07,17.81,0,26.71a2.25,2.25,0,0,1-.34,1,3.44,3.44,0,0,1-3,1.19c-2.77-.09-5.55.07-8.33-.09a1.6,1.6,0,0,1-.63-.73c-.58-2.92-.07-5.84-.09-8.77,0-1.35.35-2.84-1.42-3.47-4.85-.37-9.7-.09-14.54-.09a4.73,4.73,0,0,0-.79.37,1.71,1.71,0,0,0-1.17,1.63,64.08,64.08,0,0,0,0,6.93c.18,2.23-.67,3.51-2.76,4.07C455.47,266.15,453.67,265.5,452,266.09Z" transform="translate(-58.57 -173.86)"/><path class="cls-3" d="M405.43,234.22a270.07,270.07,0,0,1,34.14-.08,10.36,10.36,0,0,0,1.67,0,1.7,1.7,0,0,1,1.58.36c1.61,1.88-.25,3.85.05,5.83.18,1.23-1.2,1.65-2.46,1.62-2.25,0-4.5.13-6.73,0-2.55-.2-3.51.68-3.44,3.32.16,5.8.07,11.61,0,17.41,0,.85.52,1.92-.64,2.5-.75-2.55-.26-5.16-.31-7.74-.08-4.28-.07-8.56,0-12.84,0,6,0,11.93,0,17.89,0,.9-.33,1.87.34,2.69-.3,1.34-1.42,1-2.27,1-2.61.06-5.22-.08-7.83.06-1.9.1-2.38-.67-2.35-2.45.08-6,0-11.94,0-17.92,0-3.61-.26-3.86-3.75-3.87-1.95,0-3.92-.11-5.87,0-2.59.2-3.62-.93-3.35-3.43a3.41,3.41,0,0,1-.43-3A2.18,2.18,0,0,1,405.43,234.22Z" transform="translate(-58.57 -173.86)"/><path class="cls-4" d="M283.31,323.54a1.32,1.32,0,0,1-.38-.13c-1.42-.53-3.25-.19-4.14-1.9a13.58,13.58,0,0,1,7.08-1.27c1.15.1,2.29.14,3,.18-1.77.42-3.54-.38-5-2-.2-1.72,1.13-1.66,2.19-1.8,1.28-.17,2.59-.05,3.89-.1a2.92,2.92,0,0,0,2.81-1.42,2.36,2.36,0,0,1,1.22-.61,3,3,0,0,1,2.12.33,7.57,7.57,0,0,1,1.15,1.26c-.18-.57-.66-.71-.9-1.06-.67-1.76,1.71-2.29,1.53-3.86.06-1.56,0-3.12,0-4.67.11-3.44-2.74-4.05-5-5.18-.55-.28-1.28-.19-1.88-.47-1.6-1.83-3.21-1.13-4.82,0a7,7,0,0,1-1.92.43c-.92.22-1.66.89-2.59,1.07-1.16.27-.68,1.05-.58,1.76a39.72,39.72,0,0,1,.08,10.56,4.21,4.21,0,0,1-1.13,1.53c-.14.19-.45.28-.39.59,0,0,.32,0,.51,0a2.54,2.54,0,0,1,1.72.42,8.92,8.92,0,0,1,1.2,2.46c-.29,1.35-1.38,1.17-2.21.94a2.27,2.27,0,0,0-2.64.92,2.27,2.27,0,0,1-2.65-1.74,3.52,3.52,0,0,1,.18-2.08c1.67-1.53.4-2.94-.19-4.39a38.12,38.12,0,0,1-.2-5.23c0-7.13,0-14.26,0-21.38.06-1.38-1.4-2.53-.62-4a1.23,1.23,0,0,1,1.1-.56c2.13.7,4.63-.68,4.57-2.53.64-1.43,2-1.16,3.11-1.22,1.38-.08,2.78,0,4-.8,2.08-.08,4.15-.53,6.24-.18a4.72,4.72,0,0,1,2.67.68c1.74,1.17,3.46,2.35,4,4.56.42,2.46,1.62,4.81,1.15,7.41a3.59,3.59,0,0,1-.31,1.25,7.44,7.44,0,0,1-1.3,1.56c-1.07.9-2.06,1.95-3.55,2.15-1.29-1.05-.69-3-1.94-4.07a2.66,2.66,0,0,1,.49-1.85,3.11,3.11,0,0,0,.14-3.86l-.56-.5c-3.57-2.16-7.21-1.89-10.91-.4-.58.23-1,.45-1.07,1.1.18,2.61-.64,5.29.55,7.82,1,1.22,2.34,1.05,3.59.55a10,10,0,0,1,2.65-.84c.9-.08,1.67-1.1,2.68-.35.78,1.56.14,2.39-1.37,2.94-1.72.63-3.53,1-5.26,1.47a24.28,24.28,0,0,1,10.86-.16c1.61,1.08,2.69,2.89,4.71,3.4,1.61,1.34,2.16,3.47,3.66,4.9a3.84,3.84,0,0,1,.33,1.29c.06,2,.07,4,0,6-.42,2.46-2.08,4.27-3.34,6.28a2.44,2.44,0,0,1-.66,1.06,4.17,4.17,0,0,1-1.12.5c-1.23,0-2.18.8-3.31,1.09a4.79,4.79,0,0,0-2.49.89c-1.13.42-2.41.36-3.41,1.16a4.85,4.85,0,0,1-1.31.16C287.32,323.54,285.31,323.5,283.31,323.54Z" transform="translate(-58.57 -173.86)"/><path class="cls-5" d="M100.1,174.49c5.15,4.39,8.72,10.06,12.6,15.5,1.71,2.39,3.73,4.55,5.51,6.89a6.85,6.85,0,0,1,1.61,3.45c-1.48.64-1.93-.6-2.56-1.44-2.25-3.06-4.24-6.32-7.09-8.92,2.9,2.87,4.24,6.89,7.23,9.68.69.64,1.21,1.84,2.53,1.16.85.51,1.47,1,.63,2.12-.53.71-.58,1.83-1.81.87a11.94,11.94,0,0,1-2.25-2.35c-2.6-2.5-4.47-5.58-6.64-8.43-2.36-3.12-4.92-6.09-7.14-9.3-1.77-2.57-4.08-4.88-4.74-8.12C98.52,174.92,99.08,174.27,100.1,174.49Z" transform="translate(-58.57 -173.86)"/><path class="cls-6" d="M78.87,320.69l.16-.53c3.07-2.47,6.58-4.23,10-6.21a26.22,26.22,0,0,1,11.23-6.74c1.42-.4,2.62-1.39,4.1-1.61,2-.32,2.62.45,2.06,2.67l0,0c-.66.5-1.62.41-2.21,1.08a1.1,1.1,0,0,1-.51.09c-.54.41-1.23.53-1.8.9C95.27,314.12,89,318.29,82.36,322,80.86,322.81,79.27,323.21,78.87,320.69Z" transform="translate(-58.57 -173.86)"/><path class="cls-7" d="M87.32,242.52l1.11.09c2.21,1,4.58.84,6.91,1a10.6,10.6,0,0,1,2.8.31c1.08.52,3.06.38,2.73,2.11-.3,1.54-2.09,1.12-3.33,1.16-.74,0-1.46-.26-2.2-.21-5.45.1-10.66-1.57-16-2.24-5.13-.92-10.41-.91-15.44-2.47a1.84,1.84,0,0,1-.65-2.11,1.17,1.17,0,0,1,1-.83,1.52,1.52,0,0,1,.81.19,4.1,4.1,0,0,0,2.76.52c1.9.39,3.86,0,5.75.38a5.75,5.75,0,0,0,3.74.72,18.15,18.15,0,0,1,3,.35,4.49,4.49,0,0,0,2.73.8A24.66,24.66,0,0,0,87.32,242.52Z" transform="translate(-58.57 -173.86)"/><path class="cls-8" d="M182.18,262.81c0,.56.12,1.12.12,1.68q0,47.37-.1,94.74c0,.66,0,1.31,0,2a.51.51,0,0,1-.69-.07,4.88,4.88,0,0,1-.56-1c-.71-1.14-1.82-.48-2.74-.56-1.34-.1-2.78.26-3.74-1.11-.2-.64.26-.85.68-1.09a4,4,0,0,1,.81-.24c4.86-.65,4.86-.65,4.86-5.51q0-41.82,0-83.64c0-1.58-.21-3.19.46-4.71A.75.75,0,0,1,182.18,262.81Z" transform="translate(-58.57 -173.86)"/><path class="cls-9" d="M182.21,415.2l.16,1.05c-1.13,3.79-1.66,4.23-4.94,4.05-1.45.16-2.49-.79-3.67-1.35-2.31-1.29-4.52-2.68-5.46-5.36-.21-.62-.56-1.23.08-1.8,1.76-.25,3.21.74,4.8,1.18a26.68,26.68,0,0,0,6,1A4.05,4.05,0,0,1,182.21,415.2Z" transform="translate(-58.57 -173.86)"/><path class="cls-10" d="M182.21,379.85V382c-2.53.76-5.12.15-7.68.34-3.41-.17-6.85-.19-10.12-1.39-.66-.24-1.58-.32-1.42-1.36s1-1.22,1.89-1.17c3.51.19,7,0,10.54.22a11.93,11.93,0,0,0,4,.41A3.4,3.4,0,0,1,182.21,379.85Z" transform="translate(-58.57 -173.86)"/><path class="cls-11" d="M246.34,310.12l1.18,1.41c.25.53.8.9.87,1.54a1.43,1.43,0,0,1-.47,1.23c-2,1.23-4.06,2.12-6.43,1.08a37.71,37.71,0,0,1-2.71-5.1c-1.31-2.41.07-3.56,3.61-3.25,1.6-.53,1.6,1.34,2.61,1.72A3.11,3.11,0,0,1,246.34,310.12Z" transform="translate(-58.57 -173.86)"/><path class="cls-12" d="M221.71,322.88a.62.62,0,0,1-.09-.37,1.48,1.48,0,0,1-.14-1.41c.22-2.74-.68-5.55.5-8.24,2.24-.68,2,1.16,2.05,2.26a15.09,15.09,0,0,0,1.74,7.66c1.1-.8,1.19-2,1.21-3.31,0-2.72,0-5.43,0-8.15a4.84,4.84,0,0,1,.62-3,1.17,1.17,0,0,1,1.4-.1,2.12,2.12,0,0,1,.44,1.43c0,4.61.63,9.22-.1,13.81a3.12,3.12,0,0,1-1.45,1.88C225,326.65,223.28,325,221.71,322.88Z" transform="translate(-58.57 -173.86)"/><path class="cls-13" d="M182.21,400.1v2.13c-1.1,1.1-2.52.75-3.84.83A76.77,76.77,0,0,1,166.91,401a6.23,6.23,0,0,1-1.32-.45c-1-.46-1.93-1-1.55-2.28s1.76-1,2.6-.8c2.24.66,4.57.79,6.8,1.36a15.51,15.51,0,0,0,3.58.38C178.7,399.8,180.53,399.5,182.21,400.1Z" transform="translate(-58.57 -173.86)"/><path class="cls-14" d="M182.21,415.2c-4.78-.63-9.64-.86-14-3.37-.08-.14-.15-.28-.22-.42.4-1.75,1.77-1.42,2.88-1.18,3.27.72,6.61,1,9.87,1.64a2.91,2.91,0,0,1,1.45,1.16Z" transform="translate(-58.57 -173.86)"/><path class="cls-15" d="M119.93,200.81c-.08.94.06,2.1-1.44.9-2.71-2.18-4.54-5.07-6.32-7.94A23.55,23.55,0,0,0,110,191c-.63-.73-1.67-1.32-.84-3a48.75,48.75,0,0,1,5.25,5.64c1.65,2.33,2.92,5,5.43,6.71A.89.89,0,0,1,119.93,200.81Z" transform="translate(-58.57 -173.86)"/><path class="cls-16" d="M78.87,320.69c1.55,1.68,3.55,1.36,6.35-.71a129,129,0,0,1,16.69-10,.33.33,0,0,1,.15.38c0,.14-.09.2-.14.2-4.7,2.88-9.42,5.71-14.08,8.65a51.76,51.76,0,0,1-7,4,2.1,2.1,0,0,1-2.58-.25C77.44,322.08,78.33,321.4,78.87,320.69Z" transform="translate(-58.57 -173.86)"/><path class="cls-17" d="M459.9,235.22v10.6h-.55c0-2.84-.06-5.67,0-8.5.05-1.54-.47-2.21-2.08-2.15a62.76,62.76,0,0,1-6.72,0c-2.06-.15-2.51.73-2.5,2.61.08,8.13.05,16.27,0,24.41,0,1,.35,2.08-.59,2.89h0c-1-1.6-.19-3.29-.21-4.93-.1-7.34.11-14.69-.29-22a5.36,5.36,0,0,1,.49-3.53l0,0a27.14,27.14,0,0,1,11.83.07Z" transform="translate(-58.57 -173.86)"/><path class="cls-18" d="M63.71,241.94c4.25,1.7,9,.26,13.26,2.15a7.17,7.17,0,0,0,2.47.12.67.67,0,0,1,0,1c-6.9-.48-13.74-1.3-20.24-3.87C60.75,239.56,61.74,239.68,63.71,241.94Z" transform="translate(-58.57 -173.86)"/><path class="cls-19" d="M477.32,246.49a1.92,1.92,0,0,1-2.05,1.1c-4.4,0-8.79,0-13.18,0-1,0-2.14.11-1.13-1.45,4.51.71,9.06.26,13.59.27,1.74,0,2.12-1.34,2.23-2.92.15-2.36-.66-4.8.51-7.08A18.22,18.22,0,0,1,477.32,246.49Z" transform="translate(-58.57 -173.86)"/><path class="cls-20" d="M235.18,286.83a.36.36,0,0,1,0-.32,2.56,2.56,0,0,1,1.67-1.23c1.64-.26,3.18-.2,4.34,1.24a2.83,2.83,0,0,1,.42.76,2.08,2.08,0,0,1-.25,2.08,2.38,2.38,0,0,1-1.14.49c-2-.13-3.06.65-2.71,2.8a10.88,10.88,0,0,1-.18,2.55,2,2,0,0,1-.45.79c-.72.28-1.17-.11-1.56-.63a4.19,4.19,0,0,1-.41-1.8,27.49,27.49,0,0,1,.17-3.63C235,288.89,235.4,287.87,235.18,286.83Z" transform="translate(-58.57 -173.86)"/><path class="cls-21" d="M80.55,242l-3.36,0c-1-.75-2.42-.21-3.38-1.11l-6.74,0c-.55-.77-1.68-.36-2.25-1.11h0c-.11-.51,0-.81.58-.56,6.11.65,12.3.85,18.25,2.55,1.22.35,2.68-.39,3.66.83-1.39,1.11-3,.32-4.51.55C82.27,242.27,81,243,80.55,242Z" transform="translate(-58.57 -173.86)"/><path class="cls-1" d="M447.5,234.57q0,15.26,0,30.5a2.12,2.12,0,0,1-1-2.13,103.62,103.62,0,0,0,.07-22.2C446.4,238.79,445.25,236.32,447.5,234.57Z" transform="translate(-58.57 -173.86)"/><path class="cls-22" d="M489.73,236.82l-.1-1.61a1.07,1.07,0,0,1-.27-.58c0-.11.05-.21.07-.32s.13-.17.2-.26c1.59.17,1.21,1.42,1.21,2.35q.07,13.57.07,27.14c0,1.25,0,2.51-1.82,2.48-.52-.82.1-1.17.66-1.54l0,0c.59-3.52.24-7.08.22-10.61C489.92,248.2,490.32,242.5,489.73,236.82Z" transform="translate(-58.57 -173.86)"/><path class="cls-23" d="M95.18,246.46h5.3l.09-.62L98,244.2c-.2-.12-.26-.22-.19-.33s.14-.15.2-.15c1.34-.06,2.73-.46,3.91.56.81.71,2,1.13,1.66,2.59-2.24,2.09-4.74,1.53-7.26.71C96.05,247.08,94.84,247.55,95.18,246.46Z" transform="translate(-58.57 -173.86)"/><path class="cls-24" d="M95.18,246.46l1.12,1.12c-5.75.12-11.27-1.35-16.86-2.33v-1c3.48.79,7.07,1,10.53,2C91.6,246.65,93.43,246.39,95.18,246.46Z" transform="translate(-58.57 -173.86)"/><path class="cls-25" d="M182.21,400.1c-1.67-.27-3.44.34-5.05-.56a2.17,2.17,0,0,1,2.3-.09c1.66.24,2.33-.39,2.29-2.15-.1-4.17-.1-8.36,0-12.53,0-1.77-.69-2.28-2.31-2.19s-3.34,0-5,0c-.2-.12-.26-.24-.19-.36s.13-.17.2-.17l7.77-.1Z" transform="translate(-58.57 -173.86)"/><path class="cls-26" d="M179.41,258.21c.32-3.18-1.15-6.13-1.11-9.3,0-3.57,1.08-6.51,3.95-8.71,0,.39,0,.78.05,1.17a4.91,4.91,0,0,0-.63,1.2c-2,3.59-1.47,7.41-1.13,11.24.16,1.76,1,3.7-.89,5.13A.45.45,0,0,1,179.41,258.21Z" transform="translate(-58.57 -173.86)"/><path class="cls-27" d="M235.64,293.69l.06,1.72c1.41,4,.67,8.11.56,12.19a2,2,0,0,1-.56.86,1.06,1.06,0,0,1-1-.12l-.13-.56a12.32,12.32,0,0,0-.15-3l-.35-2.72c.4-2.09.09-4.19.19-6.28,0-.59,0-1.18,0-1.77a.73.73,0,0,1,.55-.6A1,1,0,0,1,235.64,293.69Z" transform="translate(-58.57 -173.86)"/><path class="cls-28" d="M168.25,411.83c.8,3.15,3.18,5,5.63,6.76-.24.46-.8.25-1.13.52-2.92-1.18-4.59-3.62-6.17-6.15.27-.41.07-1,.62-1.33a.92.92,0,0,1,1.05.21Z" transform="translate(-58.57 -173.86)"/><path class="cls-29" d="M182.18,262.81h-.39a26,26,0,0,1-3.85,2.68c-1,.53-2.16,1.22-3.08-.23.79-1.39,2.33-1.83,3.5-2.73a6.24,6.24,0,0,0,2.64-5.27c0-2.41-.46-4.87.42-7.24a.61.61,0,0,1,.78-.24Z" transform="translate(-58.57 -173.86)"/><path class="cls-25" d="M182.21,379.85c-2.24-.29-4.55.36-6.74-.57.72-.91,1.76-.8,2.73-.82s2,0,2.64-1c.7-4.47.19-9,.28-13.43,0-1-.3-2.06.62-2.87h.45Z" transform="translate(-58.57 -173.86)"/><path class="cls-30" d="M276.1,319.65c.22,1.31,1.49,1.07,2.28,1.54.3.05.39.38.65.5a9.33,9.33,0,0,1,3.9,1.72c-4.2.77-8.3-1.44-9.16-4.94.49-.35.92-.1,1.35.14A4.62,4.62,0,0,1,276.1,319.65Z" transform="translate(-58.57 -173.86)"/><path class="cls-1" d="M459.3,234.66l-11.83-.07a.8.8,0,0,1,.87-.84c3.24,0,6.48,0,9.71,0A1.25,1.25,0,0,1,459.3,234.66Z" transform="translate(-58.57 -173.86)"/><path class="cls-31" d="M259.83,286.3a.57.57,0,0,1,.09-.42,16,16,0,0,0,1.63-2.45l1.57-.92c1.08,0,2.29-.51,3,.78a.85.85,0,0,1-.41.69,5.14,5.14,0,0,0-3.59,4.81c0,1-.28,2.17-1.85,1.64-.74-.85-.27-2-.65-2.89A1.43,1.43,0,0,1,259.83,286.3Z" transform="translate(-58.57 -173.86)"/><path class="cls-32" d="M159.25,379.23c-.15,1.53-2.1,1.83-2.27,3.35-1,.91,0,2.49-1.11,3.39h0c-.8.56-.37,1.65-1,2.28a.5.5,0,0,1-.65,0c-.18-.58-.35-1.16-.53-1.74a5.16,5.16,0,0,0,.42-2.82c1.2-1.59,2.19-3.36,3.95-4.45A.82.82,0,0,1,159.25,379.23Z" transform="translate(-58.57 -173.86)"/><path class="cls-16" d="M89,314c.67,1.52-.75,1.11-1.32,1.34-3.1,1.25-5.39,3.92-8.64,4.87A24,24,0,0,1,89,314Z" transform="translate(-58.57 -173.86)"/><path class="cls-33" d="M106.38,308.27c.36-2.36-1.11-2.42-2.73-2.09-1.17.24-2.13,1.2-3.43,1a18.5,18.5,0,0,1,4.34-2.27c1.34-.58,3-1,3.69.33C108.72,306.22,107.72,307.69,106.38,308.27Z" transform="translate(-58.57 -173.86)"/><path class="cls-34" d="M287.45,278c-.66,1.74-2.2.73-3.31,1.05s-2.85-.79-3.55,1.11a2.51,2.51,0,0,1-2.45.57,1.5,1.5,0,0,1-1-.75c-.06-.51.31-.75.64-1,.55-.78,1.57-.44,2.23-1,1,.57,1.85,0,2.74-.34,1-.09,2,0,3.05-.07A1.39,1.39,0,0,1,287.45,278Z" transform="translate(-58.57 -173.86)"/><path class="cls-35" d="M202.53,297a42,42,0,0,0,14.63.17c.79.74,2.35-.74,2.78,1a2.64,2.64,0,0,1-2.26.8c-4.88,0-9.77.19-14.65-.1a1.78,1.78,0,0,1-1.23-.85C201.71,297.44,201.83,297,202.53,297Z" transform="translate(-58.57 -173.86)"/><path class="cls-36" d="M460.47,252.78l.55-.17c5.07-.54,10.16-.1,15.23-.24a3.65,3.65,0,0,1,1,.12,1.27,1.27,0,0,1,0,1.87c-2.27-1.94-5-1.17-7.46-1-2.93.26-6-1-8.82.6A1,1,0,0,1,460.47,252.78Z" transform="translate(-58.57 -173.86)"/><path class="cls-37" d="M177.22,419.72c3.23,1.08,3.44-2.3,5.15-3.47,1.26,2.21.19,4.06-.93,5.89,0,0-.16-.06-.18-.11s-.09-.35-.14-.53c-.8-1-2-.48-3-.76C177.71,420.52,177,420.56,177.22,419.72Z" transform="translate(-58.57 -173.86)"/><path class="cls-38" d="M217.7,306.54a42.11,42.11,0,0,0-13.49,0c-.65-.21-1.34.22-2-.15a.73.73,0,0,1-.44-.69c.07-.14.14-.27.22-.4a2.22,2.22,0,0,1,.84-.42c5.74-.08,11.49-.56,17.22.24a1.22,1.22,0,0,1,.55.74C219.88,307.1,218.58,305.92,217.7,306.54Z" transform="translate(-58.57 -173.86)"/><path class="cls-39" d="M159.25,379.23l-1.18,0a3.92,3.92,0,0,0-1.21-3.23,7.22,7.22,0,0,1-2-4.67A13.19,13.19,0,0,1,159.25,379.23Z" transform="translate(-58.57 -173.86)"/><path class="cls-40" d="M300.87,290.35c.65-2.79-1.14-5.26-1.07-8a1.05,1.05,0,0,1,1.05-.15,15.94,15.94,0,0,1,1.59,2,.5.5,0,0,1,0,.32c0,.16,0,.31,0,.46,0,1.79.54,3.63-.38,5.37A1,1,0,0,1,300.87,290.35Z" transform="translate(-58.57 -173.86)"/><path class="cls-41" d="M264.26,314.52c-1.68,2.57-3.2,5.31-6.45,6.27a1,1,0,0,1-.81.06,1.16,1.16,0,0,1-.2-1.16c.54-.77,1.54-.84,2.19-1.45a15.3,15.3,0,0,0,2.27-2.21c.66-.56.74-1.45,1.22-2.12a1.26,1.26,0,0,1,1.07-.25A1.13,1.13,0,0,1,264.26,314.52Z" transform="translate(-58.57 -173.86)"/><path class="cls-42" d="M202.5,319.67a2.67,2.67,0,0,1-.63,2.17.64.64,0,0,1-.86-.34,61,61,0,0,1,0-15,.79.79,0,0,1,.85-.46,1.58,1.58,0,0,1,.31.09C203,310.64,202.29,315.17,202.5,319.67Z" transform="translate(-58.57 -173.86)"/><path class="cls-43" d="M160.87,408c-3.2-3-3.49-5.36-1-8.54a.55.55,0,0,1,.71.08,1.54,1.54,0,0,1,.11,1.15c-.64,1.35-1.18,2.7-.1,4.09a6.57,6.57,0,0,1,1.24,1.83,1.7,1.7,0,0,1-.06.74A1.2,1.2,0,0,1,160.87,408Z" transform="translate(-58.57 -173.86)"/><path class="cls-44" d="M460.47,252.78c.19.41.38.82.56,1.23-1.09,2.76-.23,5.64-.51,8.45-.1,1.07.39,2.24-.59,3.14a2.44,2.44,0,0,1-2.37,0c2-1,2.32-2.7,2.1-4.75-.25-2.37.29-4.77-.29-7.14C459.34,252.89,459.7,252.58,460.47,252.78Z" transform="translate(-58.57 -173.86)"/><path class="cls-45" d="M157.53,361.21c-2.58,2.74-3.1,6.07-2.78,9.65-1.57-3.82-.54-8.71,2.16-10.25C157.5,360.42,157.64,360.68,157.53,361.21Z" transform="translate(-58.57 -173.86)"/><path class="cls-46" d="M274.54,299.33c0-2.68-.07-5.36-.11-8,0-2.24.31-4.55-1.05-6.58a1,1,0,0,1,.89-.21,2.17,2.17,0,0,1,1.23,1.43,121.45,121.45,0,0,1-.14,13.08A.59.59,0,0,1,274.54,299.33Z" transform="translate(-58.57 -173.86)"/><path class="cls-47" d="M300.88,282.45l-1.08-.07c-.67-1.71-2.37-2.51-3.44-3.87.25-.44.78-.24,1.11-.48,2.11.47,3.21,2,4,3.82A.74.74,0,0,1,300.88,282.45Z" transform="translate(-58.57 -173.86)"/><path class="cls-48" d="M477.31,254.36v-1.6c1.59.15.76,1.38.81,2.07.24,3.41-.29,6.85.31,10.25a1,1,0,0,0,.19.46q.21.38-.21.45c-.58.18-.91-.07-1.06-.62a13.75,13.75,0,0,1-.06-5.92C476,257.75,477.7,256.05,477.31,254.36Z" transform="translate(-58.57 -173.86)"/><path class="cls-49" d="M264.26,314.52l-.57-.69a1.55,1.55,0,0,1-.26-1.55,12.89,12.89,0,0,0,1.09-3,9,9,0,0,0,.85-4.26,2.37,2.37,0,0,1,.43-1.15.92.92,0,0,1,.76-.21c.6.7.06,1.61.46,2.34C266.33,308.93,266.06,312,264.26,314.52Z" transform="translate(-58.57 -173.86)"/><path class="cls-50" d="M154.23,388.22h.51a.74.74,0,0,1,1.12,0c-.09,1.91.13,3.68,2.24,4.49a1.24,1.24,0,0,1,.37,1.33c-.62,1.21-1-.16-1.53-.14C155.53,392.26,153.81,390.75,154.23,388.22Z" transform="translate(-58.57 -173.86)"/><path class="cls-51" d="M63.71,241.94c-1.46-.57-2.81-2-4.51-.56-1.06-.79-.47-1.81-.4-2.76.89.27,1.77-.62,2.67-.05h0c.52.82,1.72.31,2.25,1.14Z" transform="translate(-58.57 -173.86)"/><path class="cls-52" d="M228.87,324.06l.09-14.62a.49.49,0,0,1,.76.29c.13,1.45-.07,2.92.14,4.38.58,2.93-.16,5.89.15,8.83.05.46.15.93-.43,1.16A.43.43,0,0,1,228.87,324.06Z" transform="translate(-58.57 -173.86)"/><path class="cls-21" d="M95.18,244.19c-2.33-.19-4.94.84-6.75-1.58,1.88.08,3.83-.67,5.62.46C94.3,243.57,95.5,243.12,95.18,244.19Z" transform="translate(-58.57 -173.86)"/><path class="cls-53" d="M249.72,322.88c-2.89-.48-5.7-1.13-7.9-3.27a1.16,1.16,0,0,1,.83-.76c1.59.09,2.79,1.32,4.35,1.49a12.65,12.65,0,0,1,2.85,1.42A.89.89,0,0,1,249.72,322.88Z" transform="translate(-58.57 -173.86)"/><path class="cls-54" d="M220.59,319.57c-.32-3.38.24-6.79-.52-10.15.53-1-.36-2.19.41-3.17l.05-.17a.62.62,0,0,1,.84.24c.79,2.08.45,4.21.31,6.33,0,.33-.05.66-.05,1,0,1.35,0,2.71,0,4.06C221.56,318.44,221.8,319.42,220.59,319.57Z" transform="translate(-58.57 -173.86)"/><path class="cls-55" d="M150.27,332c2.27,2.64,4.39,5.37,5,8.95A34.22,34.22,0,0,1,150.27,332Z" transform="translate(-58.57 -173.86)"/><path class="cls-56" d="M182.23,413l-1.16-.53c-.27-2,0-4.05-.11-6.07-.05-.9.2-1.88-.65-2.57a8.32,8.32,0,0,1-1.89-.8.55.55,0,0,1-.17-.49c0-.17.07-.25.12-.25l3.85-.09Q182.24,407.63,182.23,413Z" transform="translate(-58.57 -173.86)"/><path class="cls-57" d="M236.74,285.81l-1.53.7c.17-3.21,3-2.61,4.7-2.78s2.19,1.58,2,3.22a.37.37,0,0,1-.59,0l0,0C240.13,285.17,238.65,284.67,236.74,285.81Z" transform="translate(-58.57 -173.86)"/><path class="cls-58" d="M274.54,299.33h.4c1.24,1.74.38,3.73.63,5.59-.15,2.76.34,5.54-.31,8.28a.67.67,0,0,1-.9.21c-.54-3.54.18-7.12-.37-10.66C274.61,301.68,274.34,300.47,274.54,299.33Z" transform="translate(-58.57 -173.86)"/><path class="cls-59" d="M202.52,306.22c.6-.09,1.22-.26,1.68.33-1.27.43-1.1,1.5-1.11,2.51,0,3.3-.08,6.61-.12,9.91-.44,0-.71-.19-.7-.62C202.38,314.31,201.91,310.26,202.52,306.22Z" transform="translate(-58.57 -173.86)"/><path class="cls-60" d="M249.72,322.88v-1c2.37-.76,4.64-2.17,7.29-1.15l.81.08C255.42,322.65,252.61,322.93,249.72,322.88Z" transform="translate(-58.57 -173.86)"/><path class="cls-61" d="M157.53,361.21l-.62-.6c1.05-1.6,3.43-2.56,2.45-5.12,1-.49,1.1.1,1,.85a3.06,3.06,0,0,0,.61,2.58,1.28,1.28,0,0,0-.66,1.15c-.53.79-1.69.37-2.24,1.15Z" transform="translate(-58.57 -173.86)"/><path class="cls-62" d="M202.52,306.22c.26,4.25-.59,8.53.45,12.75-.15.24-.31.47-.47.7-1.08-4.48-.46-9-.39-13.52A1.1,1.1,0,0,1,202.52,306.22Z" transform="translate(-58.57 -173.86)"/><path class="cls-63" d="M477.54,234c.16-.42.33-.84.49-1.27,3.63,1.69,7.52.08,11.21.92.15,0,.26.25.39.37l0,.07c-3.7,1.08-7.47.31-11.2.47A1.7,1.7,0,0,1,477.54,234Z" transform="translate(-58.57 -173.86)"/><path class="cls-64" d="M274.48,313.42l.51-.07c1.28,1.91.92,3.81,0,5.71l-1.2-.59c-1.32-1.58.6-3,.2-4.55A.84.84,0,0,1,274.48,313.42Z" transform="translate(-58.57 -173.86)"/><path class="cls-65" d="M221.71,322.88c1.95,1,3.42,3.21,6.08,2.27a.44.44,0,0,1,.17.45c0,.15-.09.23-.13.23l-.63.41a4,4,0,0,0-2.72,0A3.66,3.66,0,0,1,221.71,322.88Z" transform="translate(-58.57 -173.86)"/><path class="cls-66" d="M359.3,247.57c-.39,1.2-.72,2.43-1.2,3.59-.3.74-.53,1.87-1.43,1.84-1.08,0-1.24-1.13-1.28-2.07,1.32.94,1.7-.26,2.2-1S358.34,248.06,359.3,247.57Z" transform="translate(-58.57 -173.86)"/><path class="cls-31" d="M268.75,284.78v1c-.37.79.46,1.87-.6,2.49-2.38-.73-2.91-2.36-2.23-4.59l.15-.16C267.46,282.87,267.86,284.35,268.75,284.78Z" transform="translate(-58.57 -173.86)"/><path class="cls-67" d="M478.42,266a2.31,2.31,0,0,0,.21-.45c2,0,4.09,0,6.13,0a7.6,7.6,0,0,0,5-1.1l-.66,1.54Z" transform="translate(-58.57 -173.86)"/><path class="cls-68" d="M477.54,234l.37.08a1.69,1.69,0,0,1,.33,1c-.38,3.78.41,7.6-.41,11.36l-.51,0,0-10.08C477.37,235.61,477.46,234.82,477.54,234Z" transform="translate(-58.57 -173.86)"/><path class="cls-69" d="M273.93,284.6l-.55.11c-.92-1.11-.38-2,.44-2.82,1.18-.67,1.64-2.5,3.45-2.19l.54.52c.22,1.35-.6,1.87-1.72,2.14l-1,.12C274.23,283,274.66,284.08,273.93,284.6Z" transform="translate(-58.57 -173.86)"/><path class="cls-70" d="M257,307.51l0-.23c.39-.42.79-.33,1.21,0a2.52,2.52,0,0,1,.54,1.28c-.11,2,.13,4.25-2.86,4.38a1.37,1.37,0,0,1,.06-2C256.94,309.92,256.57,308.59,257,307.51Z" transform="translate(-58.57 -173.86)"/><path class="cls-71" d="M243.62,265.62h11.65A25.47,25.47,0,0,1,243.62,265.62Z" transform="translate(-58.57 -173.86)"/><path class="cls-72" d="M286.27,276.86c2.8.45,5.61-1.33,8.4.05.05.75-.49.73-1,.76-2,0-4,0-6.06,0C287.08,277.64,286.22,278,286.27,276.86Z" transform="translate(-58.57 -173.86)"/><path class="cls-73" d="M274.48,313.42l-.51.5c0-3.72,0-7.44,0-11.17C275,306.27,274.12,309.88,274.48,313.42Z" transform="translate(-58.57 -173.86)"/><path class="cls-74" d="M196.88,283.5c1.79-1.2,2.91-.05,4,1.17-.16.47.46,1.12-.33,1.45a1.46,1.46,0,0,1-1-.21c-1-1.28-2.72-.27-3.84-1.17C195.44,283.71,196.63,284.07,196.88,283.5Z" transform="translate(-58.57 -173.86)"/><path class="cls-75" d="M306.54,311.72c0,1.88.24,3.86-1.72,5.08-.5.2-.74-.11-.93-.5-.43-1.36.86-2.2,1-3.38a3.24,3.24,0,0,1,.9-1.29A.74.74,0,0,1,306.54,311.72Z" transform="translate(-58.57 -173.86)"/><path class="cls-76" d="M268.75,284.78c-1.23.29-1.62-1.21-2.69-1.25-.77-.95-2.15-.12-2.94-1,.19-.23.39-.45.58-.67.58,0,1.14.36,1.74.15C267,282.34,268.53,282.8,268.75,284.78Z" transform="translate(-58.57 -173.86)"/><path class="cls-77" d="M194.63,317.35c-1.23-2.18-.38-4.51-.48-6.77a.55.55,0,0,1,.76.15,16.75,16.75,0,0,1,.85,2.94,5,5,0,0,1-.32,3.56A.57.57,0,0,1,194.63,317.35Z" transform="translate(-58.57 -173.86)"/><path class="cls-78" d="M177.22,419.72a1.2,1.2,0,0,0,1.12.57.67.67,0,0,1,0,1,16.61,16.61,0,0,1-5.6-2.23,1.17,1.17,0,0,1,1.13-.52C175.11,418.64,175.87,420,177.22,419.72Z" transform="translate(-58.57 -173.86)"/><path class="cls-79" d="M228.24,284.71c1.09,1.74.37,3.85,1.16,5.65-.5.72.19,1.73-.58,2.38a.78.78,0,0,1-.75-.33c-.74-1.35-.22-2.93-.78-4.31a4.87,4.87,0,0,1,.18-3.13A.56.56,0,0,1,228.24,284.71Z" transform="translate(-58.57 -173.86)"/><path class="cls-80" d="M300.46,297.68a.32.32,0,0,1,.33,0,1.3,1.3,0,0,1,.18,1.73c-2.16,1-2.7-1-3.57-2.08a1.67,1.67,0,0,1,.54-2.77,1.22,1.22,0,0,1,.77.2C299.32,295.72,298.8,297.36,300.46,297.68Z" transform="translate(-58.57 -173.86)"/><path class="cls-81" d="M243.87,300.51l1.38,7.25c.14.67-.22.72-.73.58a7.14,7.14,0,0,1-1.7-5.3,8,8,0,0,1,.09-1.29C243.05,301.2,243.13,300.6,243.87,300.51Z" transform="translate(-58.57 -173.86)"/><path class="cls-82" d="M135.57,211.59c-1.73,1.81-3,4.15-5.54,5C131.74,214.8,133,212.5,135.57,211.59Z" transform="translate(-58.57 -173.86)"/><path class="cls-83" d="M230,322.94c-1.06-2.95-.29-6-.48-9,.2-.24.39-.24.57,0l.42.53a21.68,21.68,0,0,0,0,6.23Z" transform="translate(-58.57 -173.86)"/><path class="cls-84" d="M350.86,265.63h10.06A20.28,20.28,0,0,1,350.86,265.63Z" transform="translate(-58.57 -173.86)"/><path class="cls-85" d="M193.61,295.41c.34-2.23-1.9-4.63.45-6.72a1.66,1.66,0,0,1,.56.77,11.43,11.43,0,0,1-.2,5.69A.6.6,0,0,1,193.61,295.41Z" transform="translate(-58.57 -173.86)"/><path class="cls-86" d="M228.24,284.71h-.4c-1.28.29-1.29-1-1.9-1.54-.4-.89-2.09-.32-2-1.75C227.56,281.24,228,281.54,228.24,284.71Z" transform="translate(-58.57 -173.86)"/><path class="cls-87" d="M167.17,411.82a1.27,1.27,0,0,1-.59,1.14c-.75-1.15-.68-2.84-2.27-3.43a.49.49,0,0,1,.17-.75,2.31,2.31,0,0,1,3.05,1.31A1.87,1.87,0,0,1,167.17,411.82Z" transform="translate(-58.57 -173.86)"/><path class="cls-88" d="M404.3,235.18l-.06,3.36-2.2-.62c-.3-1.08.63-1.53,1.12-2.21.39-.31.18-1.13.89-1.13C404.31,234.58,404.38,234.9,404.3,235.18Z" transform="translate(-58.57 -173.86)"/><path class="cls-89" d="M368.32,248.77c.12-.91-.42-2.31,1.2-2.22s.79,1.53,1.07,2.37Z" transform="translate(-58.57 -173.86)"/><path class="cls-90" d="M220.59,319.57c1-2,.11-4.15.51-6.19.81,0,.8.59.79,1.13a57.51,57.51,0,0,1-.15,6.82l-.12,1.18C220.51,321.8,221.35,320.4,220.59,319.57Z" transform="translate(-58.57 -173.86)"/><path class="cls-91" d="M125.56,303.83c1.39,1.49,3,2.84,3.36,5C126.9,307.78,126.05,305.93,125.56,303.83Z" transform="translate(-58.57 -173.86)"/><path class="cls-92" d="M250.87,312.64a6.46,6.46,0,0,0,3.89-1A1.29,1.29,0,0,1,255,313c-1.13,1.6-2.51,2.15-4.29,1A1.16,1.16,0,0,1,250.87,312.64Z" transform="translate(-58.57 -173.86)"/><path class="cls-93" d="M286.27,276.86c2.53,1.2,5.23.16,7.82.58.2.08.28.18.23.29s-.1.19-.16.19l-6.71.1-1.82-.11c-.15-.15-.19-.3-.12-.42s.12-.19.18-.19A.46.46,0,0,1,286.27,276.86Z" transform="translate(-58.57 -173.86)"/><path class="cls-94" d="M277.27,279.7c-1.34.44-1.83,2.21-3.45,2.19.74-1.76,1.61-3.34,4-2.9Z" transform="translate(-58.57 -173.86)"/><path class="cls-95" d="M156.94,393.92c.76-.74.68.58,1.18.48,1.6.09,2.52,1.25,3.53,2.26a.71.71,0,0,1-.19.72c-.82.39-1.26-.13-1.67-.71C158.6,396,157.16,395.6,156.94,393.92Z" transform="translate(-58.57 -173.86)"/><path class="cls-96" d="M225,265.57c1.26-.64,2.52-1.29,3.79-1.91,1-.47,1.89-.67,2.55.49-.55.43-1.24,0-1.81.26A7.86,7.86,0,0,1,225,265.57Z" transform="translate(-58.57 -173.86)"/><path class="cls-97" d="M222.81,256.69a5.73,5.73,0,0,1-3.6.91c.28-.52.56-1,.83-1.56l2.13-.55C222.58,255.78,223.14,256,222.81,256.69Z" transform="translate(-58.57 -173.86)"/><path class="cls-98" d="M268.81,286.3c1.38,2.48.32,4.94-.07,7.41a.51.51,0,0,1-.73-.16,2.52,2.52,0,0,1-.36-1.23,6,6,0,0,1,.18-1.74C268.2,289.16,268.45,287.72,268.81,286.3Z" transform="translate(-58.57 -173.86)"/><path class="cls-99" d="M241.31,287h.59c.91,1.22.39,2.64.55,4a.46.46,0,0,1,.14.46c-.05.15-.1.23-.14.23-1.95,0-1.55-1.21-1.18-2.39Z" transform="translate(-58.57 -173.86)"/><path class="cls-100" d="M457.72,265.59h2.21c-2.59,1.2-5.3.54-8,.49,1.64-.84,3.42-.16,5.11-.48C457.28,265.28,457.5,265.27,457.72,265.59Z" transform="translate(-58.57 -173.86)"/><path class="cls-101" d="M236.29,312.21l-.1-1c0-.81,0-1.61.9-2,2.16.59,1.54,2.06,1.11,3.48C237.32,313.48,236.75,313.07,236.29,312.21Z" transform="translate(-58.57 -173.86)"/><path class="cls-102" d="M302.48,284.54c1.61,2,.76,4.17.56,6.3-1.6-1.92-.59-4.06-.5-6.13Z" transform="translate(-58.57 -173.86)"/><path class="cls-103" d="M305.27,302.19c1.45,1.2,1.39,2.78,1.14,4.42a.51.51,0,0,1-.66.06,3.5,3.5,0,0,1-.81-1.26,11.43,11.43,0,0,1-.58-2.23C304.46,302.66,304.51,302.1,305.27,302.19Z" transform="translate(-58.57 -173.86)"/><path class="cls-104" d="M212.31,257.62c-1.38-.19-2.76-.39-3-2.18C211,255.29,211.63,256.48,212.31,257.62Z" transform="translate(-58.57 -173.86)"/><path class="cls-105" d="M200.67,285.89c0-.41-.44-.92.22-1.22,1.16,1.14,0,2.84,1,4-.46.91.13,2-.46,2.89a.82.82,0,0,1-.81-.24,2.75,2.75,0,0,1-.46-1.3C200.13,288.64,199.77,287.19,200.67,285.89Z" transform="translate(-58.57 -173.86)"/><path class="cls-106" d="M236.29,312.21l1.62.66a2.45,2.45,0,0,1,1.47,1.28,1.53,1.53,0,0,1-.25,1.56c-.68.31-.95-.42-1.44-.58C237,314.27,236.18,313.46,236.29,312.21Z" transform="translate(-58.57 -173.86)"/><path class="cls-107" d="M347.53,259.94c1.38,1.41,1.75,3.27,2.25,5.06C348.32,263.63,347.26,262.08,347.53,259.94Z" transform="translate(-58.57 -173.86)"/><path class="cls-108" d="M302.54,284.71c.33,2-.52,4.16.5,6.13l-.44.72c-.94-.05-1-.55-.65-1.26C302.49,288.47,301.34,286.47,302.54,284.71Z" transform="translate(-58.57 -173.86)"/><path class="cls-109" d="M63.71,239.71c-.88-.13-2.08.38-2.25-1.14,1.31.22,2.76-.53,3.95.57l-.58.56Z" transform="translate(-58.57 -173.86)"/><path class="cls-110" d="M229.45,309.5l-.49-.06c0-.36-.05-.73-.08-1.09a3,3,0,0,1-.68-1.76c0-1.28-.23-2.59.49-3.77a.62.62,0,0,1,.85-.12l.44.62c-.44,1.62-.11,3.28-.22,4.91C229.75,308.68,229.82,309.15,229.45,309.5Z" transform="translate(-58.57 -173.86)"/><path class="cls-111" d="M229.54,302.7H229a2.57,2.57,0,0,1-.79-2.1,29.24,29.24,0,0,1,.1-3.62,2.43,2.43,0,0,1,.34-.83.57.57,0,0,1,.78-.2Q229.47,299.33,229.54,302.7Z" transform="translate(-58.57 -173.86)"/><path class="cls-112" d="M139.07,208.85c-1,1.05-1.67,2.41-3.26,2.7C136.89,210.64,136.67,208.17,139.07,208.85Z" transform="translate(-58.57 -173.86)"/><path class="cls-113" d="M235,293.66l-.44.12c-.6-.45-.1-1.24-.52-1.75l.54-3.89c1.34.14.51,1.2.76,1.81C235.22,291.18,235.74,292.48,235,293.66Z" transform="translate(-58.57 -173.86)"/><path class="cls-114" d="M201.47,324.13c-.47,1-1.44,1.26-2.36,1.58-.48-.54-1.7.26-1.78-1,.45-.71,1.32-.68,1.91-1.14a2.16,2.16,0,0,1,1.09-.37A1.24,1.24,0,0,1,201.47,324.13Z" transform="translate(-58.57 -173.86)"/><path class="cls-115" d="M297.5,321.85a7.26,7.26,0,0,1-2.84,1.59c-.36-.31-1-.05-1.25-.61,0-.8,1-.66,1.23-1.24a2.1,2.1,0,0,1,1.07-.3c.62.07,1.22-.29,1.85-.09A.47.47,0,0,1,297.5,321.85Z" transform="translate(-58.57 -173.86)"/><path class="cls-116" d="M283.31,323.54c2-1.23,4.23-.33,6.34-.54a.66.66,0,0,1,0,1l-.61,0c-1.83-.66-3.79.2-5.62-.48Z" transform="translate(-58.57 -173.86)"/><path class="cls-117" d="M234.52,295.39c-.19,2.23.56,4.52-.43,6.7q0-3.36,0-6.7C234.23,295.15,234.38,295.14,234.52,295.39Z" transform="translate(-58.57 -173.86)"/><path class="cls-118" d="M300.75,299.39c0-.56,0-1.12,0-1.69,1.13.35,1.67,1.35,2.41,2.15a1.18,1.18,0,0,1-.69.87c-.73.26-1.22-.13-1.67-.63A.68.68,0,0,1,300.75,299.39Z" transform="translate(-58.57 -173.86)"/><path class="cls-119" d="M103.56,246.87c-.55-.86-1.11-1.72-1.66-2.59C104.44,245,104.44,245,103.56,246.87Z" transform="translate(-58.57 -173.86)"/><path class="cls-120" d="M209.19,254.91c-2.07-.25-1.69-2.08-2.16-3.36C208,252.5,209.07,253.4,209.19,254.91Z" transform="translate(-58.57 -173.86)"/><path class="cls-121" d="M196.88,283.5l-1.07,1.26a2,2,0,0,1-.6,1.81.83.83,0,0,1-1.06-.21C193.94,284.33,195.07,283.6,196.88,283.5Z" transform="translate(-58.57 -173.86)"/><path class="cls-122" d="M242.36,291.51l.09-.6c1,1.55.37,3.44,1,5.08a1,1,0,0,1-.86.19,1.39,1.39,0,0,1-.63-.66A4.36,4.36,0,0,1,242.36,291.51Z" transform="translate(-58.57 -173.86)"/><path class="cls-123" d="M220.48,306.25c-.12,1.06.36,2.19-.41,3.17-.11-1.52-.17-3.08-2.37-2.88C218.55,305.77,219.52,306.09,220.48,306.25Z" transform="translate(-58.57 -173.86)"/><path class="cls-124" d="M258.12,307.18l-1.06.1c.2-1.16-.51-2.44.5-3.48a1.3,1.3,0,0,1,.94.72,2.75,2.75,0,0,1-.07,2.39Z" transform="translate(-58.57 -173.86)"/><path class="cls-125" d="M196.32,324.64c-1.83-.78-.63-2.75-1.54-3.9a.66.66,0,0,1,.6-.27c1,.33.87,1.29,1.19,2,.09.21.17.43.25.64.18.56.49,1.1.1,1.68A.47.47,0,0,1,196.32,324.64Z" transform="translate(-58.57 -173.86)"/><path class="cls-126" d="M250.87,312.64v1.07a.46.46,0,0,1-.5.44,8.52,8.52,0,0,1-2.37-1.29,1.24,1.24,0,0,1-.49-1.33Z" transform="translate(-58.57 -173.86)"/><path class="cls-127" d="M305.94,306.63l.47,0,.54,1.18a6.28,6.28,0,0,0,0,3.36l-.41.57h-.61A4.22,4.22,0,0,1,305.94,306.63Z" transform="translate(-58.57 -173.86)"/><path class="cls-128" d="M477.3,259.45l.06,5.92A6.47,6.47,0,0,1,477.3,259.45Z" transform="translate(-58.57 -173.86)"/><path class="cls-129" d="M230.51,320.72a9.08,9.08,0,0,1,0-6.23C230.52,316.57,230.51,318.65,230.51,320.72Z" transform="translate(-58.57 -173.86)"/><path class="cls-130" d="M181.68,242c.2-.22.41-.43.62-.65,0,2.09-.08,4.17-.13,6.26a.66.66,0,0,1-.81-.35A6.32,6.32,0,0,1,181.68,242Z" transform="translate(-58.57 -173.86)"/><path class="cls-131" d="M221.06,287.42a.46.46,0,1,1,.9-.2,8.39,8.39,0,0,1-.07,5.76.76.76,0,0,1-.87.26,2.56,2.56,0,0,1-.23-1.44C220.93,290.34,220.49,288.85,221.06,287.42Z" transform="translate(-58.57 -173.86)"/><path class="cls-132" d="M243,296l.47,0,.42,4.52c-.11.37-.23.74-.34,1.11C241.28,299.94,242.11,298,243,296Z" transform="translate(-58.57 -173.86)"/><path class="cls-133" d="M95.18,244.19l-1.13-1.12c1.35,0,2.74-.22,3.94.65,0,.16,0,.32,0,.48Z" transform="translate(-58.57 -173.86)"/><path class="cls-134" d="M221,292l.12,1.2a4.19,4.19,0,0,1,.4,3.94,1.43,1.43,0,0,1-.62.62c-.85,0-.8-.68-.94-1.22,1-1.4.24-3,.64-4.52C220.71,291.76,220.84,291.77,221,292Z" transform="translate(-58.57 -173.86)"/><path class="cls-43" d="M164.33,409c0,.18,0,.37,0,.55l-1.18-.57c-.64-.44-1.95-.17-1.66-1.58l.05-.06a1.9,1.9,0,0,1,1.19-.48C163.93,407,164.58,407.67,164.33,409Z" transform="translate(-58.57 -173.86)"/><path class="cls-135" d="M159.79,396.67l1.66.58c.72,1.26,0,1.76-1.08,2.13a3.33,3.33,0,0,0-.54.07C159.82,398.52,159.8,397.6,159.79,396.67Z" transform="translate(-58.57 -173.86)"/><path class="cls-136" d="M236.81,309.45c0,.64.07,1.34-.62,1.75a1.79,1.79,0,0,1-.46-.09,2.78,2.78,0,0,1-.11-2.72l.14-.12a.91.91,0,0,1,1.16,0A1,1,0,0,1,236.81,309.45Z" transform="translate(-58.57 -173.86)"/><path class="cls-137" d="M300.8,319.46l.11-.92a1.79,1.79,0,0,1,1.59-.84,1.06,1.06,0,0,1,.71.82c-.64.75-1.17,1.65-2.33,1.68A.49.49,0,0,1,300.8,319.46Z" transform="translate(-58.57 -173.86)"/><path class="cls-138" d="M229.41,296l-.42,0a2.35,2.35,0,0,1-.13-3.31c.18-.75-.22-1.64.54-2.25C229.4,292.23,229.41,294.09,229.41,296Z" transform="translate(-58.57 -173.86)"/><path class="cls-139" d="M100.1,174.49c-.69.39-1.2,1.14-2.12,1.11C98.13,173.63,98.46,173.45,100.1,174.49Z" transform="translate(-58.57 -173.86)"/><path class="cls-140" d="M294.16,277.92c0-.16,0-.32-.07-.48l.58-.53c1.14-.13,1.89.68,2.8,1.12l-1.11.48Z" transform="translate(-58.57 -173.86)"/><path class="cls-141" d="M330.59,259.93l2.23-4C332.8,257.67,332.54,259.28,330.59,259.93Z" transform="translate(-58.57 -173.86)"/><path class="cls-142" d="M229.45,309.5l.09-1.2c.16-.22.3-.22.43,0,.05,1.87.09,3.75.13,5.63l-.57,0C229.5,312.46,229.48,311,229.45,309.5Z" transform="translate(-58.57 -173.86)"/><path class="cls-143" d="M300.46,297.68c-1.5,0-2.46-.49-1.72-2.25.67-.35,1.16-.38,1.05.61C299.6,296.76,300.16,297.16,300.46,297.68Z" transform="translate(-58.57 -173.86)"/><path class="cls-144" d="M254.77,312.82c0-.41,0-.81,0-1.22l1.63-2.35a1.4,1.4,0,0,1,.05,1.83,2,2,0,0,0-.56,1.73l-.23.23A.74.74,0,0,1,254.77,312.82Z" transform="translate(-58.57 -173.86)"/><path class="cls-145" d="M194.15,286.36l1,0a1.45,1.45,0,0,1,.52.63,2.82,2.82,0,0,1-.11,2,1.11,1.11,0,0,1-.65.48,1,1,0,0,1-.75-.27,1.6,1.6,0,0,1-.09-.53Z" transform="translate(-58.57 -173.86)"/><path class="cls-146" d="M283.41,323.55c1.87.19,3.82-.54,5.62.48C287.16,323.87,285.2,324.7,283.41,323.55Z" transform="translate(-58.57 -173.86)"/><path class="cls-147" d="M202.53,297l-.61.66c-2-1.05-1.2-2.7-.88-4.25a.63.63,0,0,1,.83-.29C202.24,294.4,201.52,295.85,202.53,297Z" transform="translate(-58.57 -173.86)"/><path class="cls-148" d="M194,305.53l-.42-.54c.51-1.31-.14-2.74.42-4.05a.76.76,0,0,1,.86.22,4.57,4.57,0,0,1,0,4.24A.62.62,0,0,1,194,305.53Z" transform="translate(-58.57 -173.86)"/><path class="cls-149" d="M193.61,295.41a2.67,2.67,0,0,1,.4,0,1.67,1.67,0,0,1,.71,1.16,6.7,6.7,0,0,1-.32,3.68.57.57,0,0,1-.79.22Z" transform="translate(-58.57 -173.86)"/><path class="cls-150" d="M230,308.33a3.11,3.11,0,0,1-.43,0c.19-1.66-.59-3.4.44-5C230,305,230,306.66,230,308.33Z" transform="translate(-58.57 -173.86)"/><path class="cls-151" d="M234.44,304.81a2,2,0,0,1,.15,3C234,306.82,233.63,305.84,234.44,304.81Z" transform="translate(-58.57 -173.86)"/><path class="cls-152" d="M194,305.53h.57a1.73,1.73,0,0,1,.58.78c.22,1.47.58,2.95-.54,4.25h-.5C194.11,308.9,194.08,307.21,194,305.53Z" transform="translate(-58.57 -173.86)"/><path class="cls-153" d="M268.81,286.3c-.14,1.56.46,3.2-.5,4.68a1.81,1.81,0,0,1-.64-1.6,2.1,2.1,0,0,1,.52-1.22c.19-.79-.2-1.71.55-2.37A.81.81,0,0,1,268.81,286.3Z" transform="translate(-58.57 -173.86)"/><path class="cls-154" d="M221.61,287h-.47a3.43,3.43,0,0,1,.54-2.88.56.56,0,0,1,.77.19,2.47,2.47,0,0,1,0,2.57A.59.59,0,0,1,221.61,287Z" transform="translate(-58.57 -173.86)"/><path class="cls-155" d="M261.55,283.43c0,1.19-.15,2.25-1.63,2.45C259.94,284.72,260.23,283.73,261.55,283.43Z" transform="translate(-58.57 -173.86)"/><path class="cls-156" d="M300.88,282.45l.64-.6a3,3,0,0,1,.92,2.37A1.69,1.69,0,0,1,300.88,282.45Z" transform="translate(-58.57 -173.86)"/><path class="cls-157" d="M178.35,421.34c0-.35,0-.7,0-1,1.09,0,2.32-.25,2.78,1.21Z" transform="translate(-58.57 -173.86)"/><path class="cls-158" d="M237.69,315.13l1.37.52a2.78,2.78,0,0,1,1.88,1.71,1,1,0,0,1-.23.7A1.07,1.07,0,0,1,240,318,6.34,6.34,0,0,1,237.69,315.13Z" transform="translate(-58.57 -173.86)"/><path class="cls-159" d="M229.52,264.41c.5-.77,1.14-.57,1.81-.26.29.39,1,.46.82,1.18A5.4,5.4,0,0,1,229.52,264.41Z" transform="translate(-58.57 -173.86)"/><path class="cls-160" d="M293.53,322.92l1.13.52c-1.48.15-2.85,1.09-4.41.58.22-1.2,1.36-1,2.11-1.42A1.38,1.38,0,0,1,293.53,322.92Z" transform="translate(-58.57 -173.86)"/><path class="cls-109" d="M61.47,238.57c-.9,0-1.75,1.81-2.67.05C59.67,237.59,60.56,237.81,61.47,238.57Z" transform="translate(-58.57 -173.86)"/><path class="cls-161" d="M258.2,298.8l0-.59a.87.87,0,0,1,1.27.17,4.36,4.36,0,0,1,0,4.16c-.48.49-.81.19-1.13-.21C257.72,301.19,258.81,300,258.2,298.8Z" transform="translate(-58.57 -173.86)"/><path class="cls-162" d="M299.79,296a1,1,0,0,0-1.05-.61c0-.19,0-.37-.05-.56a2.34,2.34,0,0,1,1.18-1.43,1.22,1.22,0,0,1,1.12.2.65.65,0,0,1-.08.73C300.94,295.2,300.37,295.62,299.79,296Z" transform="translate(-58.57 -173.86)"/><path class="cls-163" d="M302.58,300.42l.62-.57a1,1,0,0,1,1.09,1.09c.36.64.29,1.14-.45,1.43C302.56,302.28,302.52,301.38,302.58,300.42Z" transform="translate(-58.57 -173.86)"/><path class="cls-153" d="M266.6,303.84l-.56,0a1.36,1.36,0,0,1-.39-1.16c.27-.89.14-2,1.37-2.37.72.45.16,1.33.61,1.87l-.54,1.12A1.36,1.36,0,0,1,266.6,303.84Z" transform="translate(-58.57 -173.86)"/><path class="cls-164" d="M220,296.53a1.09,1.09,0,0,1,.53,1.06.3.3,0,0,1-.46.13c-.94-.23-2,.29-2.86-.54C218.09,296.94,219.14,297.25,220,296.53Z" transform="translate(-58.57 -173.86)"/><path class="cls-165" d="M258.8,295.94l0-4.52c1,.13,1,1,1.15,1.7a4.79,4.79,0,0,1-.4,2.64A.53.53,0,0,1,258.8,295.94Z" transform="translate(-58.57 -173.86)"/><path class="cls-166" d="M303.21,318.52l-.66-.61c-.06-1.18.65-1.6,1.68-1.72l.59.61Z" transform="translate(-58.57 -173.86)"/><path class="cls-167" d="M353,243.07c-1.78-.21-1.27-1.7-1.53-2.75A5.07,5.07,0,0,1,353,243.07Z" transform="translate(-58.57 -173.86)"/><path class="cls-168" d="M193.61,300.47h.45c.15.11.21.22.17.35s-.07.19-.12.19c-.29,1.31.47,2.75-.49,4C193.62,303.48,193.62,302,193.61,300.47Z" transform="translate(-58.57 -173.86)"/><path class="cls-169" d="M201.87,293.13h-.46a1.12,1.12,0,0,1,0-1.64c.16-.93-.32-2,.46-2.8C201.85,290.18,201.86,291.65,201.87,293.13Z" transform="translate(-58.57 -173.86)"/><path class="cls-170" d="M259.34,293.18c-.12-.6.05-1.28-.52-1.75l.54-2.23a.49.49,0,0,1,.69.15,11.89,11.89,0,0,0,.41,2,2.69,2.69,0,0,1-.37,1.64A.55.55,0,0,1,259.34,293.18Z" transform="translate(-58.57 -173.86)"/><path class="cls-171" d="M404.3,235.18c-.74-.6-.64.62-1.14.53l-.6-1.5h2.87C405.25,234.78,404.77,235,404.3,235.18Z" transform="translate(-58.57 -173.86)"/><path class="cls-172" d="M258.12,304.35l-.56-.55c.29-1.31-.59-2.78.57-4,.54.71.2,1.53.3,2.29S258.89,303.7,258.12,304.35Z" transform="translate(-58.57 -173.86)"/><path class="cls-173" d="M181.74,247.59a.9.9,0,0,0,.43,0l0,2.16a2.59,2.59,0,0,0-.48,0C180.31,249.07,180.25,248.33,181.74,247.59Z" transform="translate(-58.57 -173.86)"/><path class="cls-174" d="M302,290.3a1.45,1.45,0,0,0,.65,1.26,1,1,0,0,1-.11.43c-.48.5-.95,1-1.75.58a.92.92,0,0,1,.1-1.13l0-1.09Z" transform="translate(-58.57 -173.86)"/><path class="cls-175" d="M221,292a2.68,2.68,0,0,1-.4,0c.14-1.53-.75-3.17.47-4.59C221,289,221,290.47,221,292Z" transform="translate(-58.57 -173.86)"/><path class="cls-176" d="M300.9,292.63l1.59-.64c.25,1.3-.89,1.69-1.58,2.38l-.1-.82A.62.62,0,0,1,300.9,292.63Z" transform="translate(-58.57 -173.86)"/><path class="cls-177" d="M154.12,383.66c1.15,1.13.27,2-.42,2.82C153.76,385.53,153.12,384.47,154.12,383.66Z" transform="translate(-58.57 -173.86)"/><path class="cls-178" d="M235.62,308.39c0,.91.07,1.81.11,2.72-1-.67-.86-1.78-1-2.77Z" transform="translate(-58.57 -173.86)"/><path class="cls-179" d="M227.83,325.83l0-.68,1.08-1.09.71,0A1.69,1.69,0,0,1,227.83,325.83Z" transform="translate(-58.57 -173.86)"/><path class="cls-180" d="M196.32,324.64l.6-.09a.36.36,0,0,1,.5.11l1.69,1C198.12,325.51,196.61,326.68,196.32,324.64Z" transform="translate(-58.57 -173.86)"/><path class="cls-181" d="M258.8,295.94l.4,0a1.51,1.51,0,0,1,.38,2l-.29.32h-1.05A2.49,2.49,0,0,1,258.8,295.94Z" transform="translate(-58.57 -173.86)"/><path class="cls-182" d="M300.8,319.46l.08.74a1.64,1.64,0,0,1-1.68,1.11,1,1,0,0,1-.32-.64c0-.57.51-.78.89-1.08Z" transform="translate(-58.57 -173.86)"/><path class="cls-183" d="M222.19,284.17l-.51-.05c-.15-1.25.84-1.69,1.59-2.31a1.33,1.33,0,0,1,.45.62,1.65,1.65,0,0,1-.17,1.13A1.52,1.52,0,0,1,222.19,284.17Z" transform="translate(-58.57 -173.86)"/><path class="cls-184" d="M223.37,282.6c0-.27-.06-.53-.1-.79l.65-.4c.65,1,2.2-.1,2.71,1.19A2.67,2.67,0,0,1,223.37,282.6Z" transform="translate(-58.57 -173.86)"/><path class="cls-185" d="M244.68,308.3l.57-.54a3.19,3.19,0,0,1,1.09,2.36l-1.69-.66A.82.82,0,0,1,244.68,308.3Z" transform="translate(-58.57 -173.86)"/><path class="cls-186" d="M161.47,407.38c.56.52,1.11,1.05,1.66,1.58-.89,0-2,.64-2.26-1Z" transform="translate(-58.57 -173.86)"/><path class="cls-187" d="M201.47,324.13l-1.24-.66a.54.54,0,0,1-.14-.39q0-.21.06-.21a3,3,0,0,1,.45-.49,2.64,2.64,0,0,1,.81-.55h.46C201.93,322.64,202.3,323.49,201.47,324.13Z" transform="translate(-58.57 -173.86)"/><path class="cls-188" d="M285.69,277.3l-.06.61h-3.31c-.16-.09-.22-.18-.16-.26s.11-.14.16-.13Z" transform="translate(-58.57 -173.86)"/><path class="cls-189" d="M116.5,201.45a4.8,4.8,0,0,1,2.25,2.35A2.85,2.85,0,0,1,116.5,201.45Z" transform="translate(-58.57 -173.86)"/><path class="cls-190" d="M256.44,311.08c0-.61,0-1.22-.05-1.83a2.18,2.18,0,0,1,.63-1.74C256.94,308.72,257.5,310,256.44,311.08Z" transform="translate(-58.57 -173.86)"/><path class="cls-191" d="M197.49,261.17c.73.49,1.85.44,2.15,1.54C198.71,262.49,197.52,262.64,197.49,261.17Z" transform="translate(-58.57 -173.86)"/><path class="cls-192" d="M235.16,289.8c-.11-.58.11-1.26-.54-1.66l.56-1.31c.9.85.43,1.92.45,2.91C235.51,290,235.35,290,235.16,289.8Z" transform="translate(-58.57 -173.86)"/><path class="cls-193" d="M292.45,323l-2.2,1h-.61v-1l1.05-.1A1.31,1.31,0,0,1,292.45,323Z" transform="translate(-58.57 -173.86)"/><path class="cls-194" d="M195.21,320.72H195l-.22,0-.15-3.39h.52A2.34,2.34,0,0,1,195.21,320.72Z" transform="translate(-58.57 -173.86)"/><path class="cls-195" d="M267.63,302.2c-.68-.43-.41-1.14-.51-1.74a.89.89,0,0,1-.21-1,1,1,0,0,1,.59-.4.85.85,0,0,1,.65.27C267.59,300.21,267.76,301.23,267.63,302.2Z" transform="translate(-58.57 -173.86)"/><path class="cls-196" d="M398.63,245.87c-1.07-1,0-1.56.53-2.2C399.12,244.43,399.71,245.35,398.63,245.87Z" transform="translate(-58.57 -173.86)"/><path class="cls-197" d="M234.52,295.39h-.44V292c.59.46.41,1.15.52,1.75S234.55,294.86,234.52,295.39Z" transform="translate(-58.57 -173.86)"/><path class="cls-198" d="M258.24,302.21c0-.79-.08-1.58-.11-2.38,0-.34,0-.68.07-1,1,1,.3,2.2.5,3.28C258.61,302.37,258.46,302.43,258.24,302.21Z" transform="translate(-58.57 -173.86)"/><path class="cls-199" d="M303.65,302.13c.51-.23.59-.7.64-1.19.43.34.93.62,1,1.25-.15.37-.31.73-.46,1.1a.65.65,0,0,1-.69.12C303.7,303.08,303.37,302.72,303.65,302.13Z" transform="translate(-58.57 -173.86)"/><path class="cls-200" d="M307,311.15a2.93,2.93,0,0,1,0-3.36Z" transform="translate(-58.57 -173.86)"/><path class="cls-33" d="M104.14,309.38c.24-1.39,1.36-.95,2.21-1.08A2.59,2.59,0,0,1,104.14,309.38Z" transform="translate(-58.57 -173.86)"/><path class="cls-201" d="M240,318l.74-.05c.82-.36,1.21.19,1.6.74l.09.39-.6.58A4.09,4.09,0,0,1,240,318Z" transform="translate(-58.57 -173.86)"/><path class="cls-202" d="M282.32,277.52a1.78,1.78,0,0,1,0,.4,1.41,1.41,0,0,1-2.3.11Z" transform="translate(-58.57 -173.86)"/><path class="cls-203" d="M299.19,320.72v.59c-.4.7-1.09.5-1.7.54,0-.17,0-.34,0-.52C297.88,320.58,298.33,320.09,299.19,320.72Z" transform="translate(-58.57 -173.86)"/><path class="cls-204" d="M167.69,196.53c.21.27.52.7.17.87a1.49,1.49,0,0,1-1.89-.33Z" transform="translate(-58.57 -173.86)"/><path class="cls-205" d="M268.15,299.32l-.18,0h-.19a2,2,0,0,1-.5-2.35,1,1,0,0,1,.61-.57l.4.15Z" transform="translate(-58.57 -173.86)"/><path class="cls-206" d="M259.8,289.19h-.44c.1-1-.61-2.09.47-2.9,0,.41.07.82.1,1.24A1.48,1.48,0,0,1,259.8,289.19Z" transform="translate(-58.57 -173.86)"/><path class="cls-207" d="M148.7,330.94c1.28-.91,1.53-.15,1.55,1C149.79,331.5,149,331.67,148.7,330.94Z" transform="translate(-58.57 -173.86)"/><path class="cls-208" d="M224.48,326.25a2.08,2.08,0,0,1,2.72,0Z" transform="translate(-58.57 -173.86)"/><path class="cls-209" d="M266.6,303.84c.16-.17.32-.35.49-.52,0,.9,0,1.81-.07,2.71C266.32,305.41,266.7,304.58,266.6,303.84Z" transform="translate(-58.57 -173.86)"/><path class="cls-210" d="M265.44,282a1,1,0,0,1-1.74-.15C264.38,280.69,264.86,281.91,265.44,282Z" transform="translate(-58.57 -173.86)"/><path class="cls-33" d="M101.92,310.6c0-.19,0-.39,0-.58.42-.65,1.08-.56,1.72-.55A2,2,0,0,1,101.92,310.6Z" transform="translate(-58.57 -173.86)"/><path class="cls-211" d="M268.33,293.73l.41,0c-.07,1,.63,2-.45,2.82h0C267.57,295.58,267.39,294.64,268.33,293.73Z" transform="translate(-58.57 -173.86)"/><path class="cls-212" d="M181.74,247.59a1.56,1.56,0,0,0,0,2.24V256c0,5.39-1.11,7-6.35,9.21-.13.06-.19.28-.29.42-.19,1.35-1.36,1.31-2.15,1.17-2.9-.54-4.27.69-4.61,3.48a2.7,2.7,0,0,1-.73,1.49c-1.89,1.86-1.61,3.6.07,5.43,2.9,3.14,3.7,7.21,4.71,11.17,3.06,18.3,1.34,36.74,1.6,55.12.05,3.88-.52,7.81-.42,11.73,0,1.22-.26,2.69,1.42,3.23s3.44.24,5.17.23c1,0,2-.1,1.55,1.43-.72,1.19-1.62,1.45-2.76.55-2-1.19-4.18-.53-6.23-.44-2.45.1-4.75-.66-7.16-.67-.62,0-.94-.52-1.2-1a1.25,1.25,0,0,1,1-.37c4.32-.22,4.39-.22,4.29-4.44-.07-3.16.45-6.28.3-9.43,0-2.61-.08-5.21.07-7.81.45-9.29.37-18.57,0-27.85,0-7.09-.24-14.15-2.35-21-.83-2.45-1.64-4.9-2.5-7.35-.64-1.84-1.53-2.84-3.83-2-2.09.76-4,2.18-6.42,2-.35-.91-.84-.26-1.28-.12a3.92,3.92,0,0,1-4.16-2.51c-.79-2.16.08-4.08,1.94-5.47.71-.48,1.63-.4,2.32-.91,2.06-.05,4.14-.68,6.14.62a3,3,0,0,0,2.38-.31c2.73-1.46,3.31-8.35.95-10.54-.25-1.14-1.43-1.73-1.69-2.86a60.77,60.77,0,0,1-2.29-7.61,7.61,7.61,0,0,1,2.7-8c3.92-2.56,7.33.94,7.74,5.43.36,3.95-.31,7.77-.72,11.62a2.83,2.83,0,0,0,1.56,3.2c1.64.81,3-.32,4.44-.68a3.52,3.52,0,0,0,2.16-1.15c1-.51,1.53-1.47,2.37-2.12.77-1.66.32-3.36.28-5.08-.1-4-1.79-8.33,1.9-11.73Z" transform="translate(-58.57 -173.86)"/><path class="cls-213" d="M127.44,259.25C128,247.69,131,237,138.82,228.1a25.46,25.46,0,0,1,8.26-6.08c1.12-.54,2.16-.58,2.87.69s.22,2.13-.84,2.85c-7.49,5.1-12,12.36-14.19,20.93-1.36,5.25-1.87,10.73-2.6,16.13a12.56,12.56,0,0,1-.79,2.92,2,2,0,0,1-2.33,1.13,1.71,1.71,0,0,1-1.42-1.82C127.78,263,127,261.16,127.44,259.25Z" transform="translate(-58.57 -173.86)"/><path class="cls-214" d="M142.91,306c-1.65.32-2.73-1-3.46-1.9-4.81-5.91-8.95-12.2-8.84-20.29,0-1-.14-2.34,1.11-2.51,1.07-.14,1.39,1.17,1.59,2,1.61,6.74,5.15,12.38,9.72,17.46a6.93,6.93,0,0,1,1.61,3.21C145,305.5,144.4,306.13,142.91,306Z" transform="translate(-58.57 -173.86)"/><path class="cls-215" d="M167.69,287.59c1.75,2.71,1.54,5.91,2.23,8.88.91,3.92.34,7.91.59,11.86.53,6.87.17,13.74.18,20.61a.6.6,0,0,1-.92.14c-.28-8,0-16-.13-24a6.58,6.58,0,0,0-.25-3C169.86,297.09,168,292.44,167.69,287.59Z" transform="translate(-58.57 -173.86)"/><path class="cls-216" d="M169.39,302c1.14,2.75.42,5.64.5,8.45.19,6.21.09,12.44.11,18.66.92,1.84.57,3.83.41,5.7-.26,3-.12,6.06-.24,9.09a.54.54,0,0,1-.75.47Z" transform="translate(-58.57 -173.86)"/><path class="cls-217" d="M170.53,262.78c-1.63-.41-2.49-1-2-3.09a37.42,37.42,0,0,0,.78-11.33c-.3-5.1-2.26-6.56-7.4-5.83,3.69-2.38,7.64-.19,8,4.44.27,3.56.49,7.09-.44,10.65C169.06,259.3,169,261.31,170.53,262.78Z" transform="translate(-58.57 -173.86)"/><path class="cls-218" d="M169.42,344.4a2.39,2.39,0,0,0,.45-.09c.19-.26.35-.24.48.05.28,4.18-.9,8.3-.5,12.49.11,1.2-.81,1.53-1.87,1.54-1.22,0-2.43.07-3.64.11a3,3,0,0,1,0-.52c5-.46,5-.46,5-5.51C169.31,349.78,169.38,347.09,169.42,344.4Z" transform="translate(-58.57 -173.86)"/><path class="cls-219" d="M179.5,258.83a2.34,2.34,0,0,1-2.3,2.25.43.43,0,0,1-.19-.4c0-.15.06-.23.11-.23l2.29-2.24Z" transform="translate(-58.57 -173.86)"/><path class="cls-220" d="M161.54,258.17c.8.82,1.83,1.49,1.69,2.86C162.32,260.28,161.29,259.61,161.54,258.17Z" transform="translate(-58.57 -173.86)"/><path class="cls-221" d="M153.76,271.26c-.53.9-1.15,1.6-2.32.92C151.74,270.67,152.92,271.38,153.76,271.26Z" transform="translate(-58.57 -173.86)"/><path class="cls-222" d="M177.12,260.45c0,.21,0,.42.08.63-.42,1-1.27,1.14-2.23,1Z" transform="translate(-58.57 -173.86)"/><path class="cls-223" d="M155.2,270.33a2.69,2.69,0,0,1,2.47.06A2.69,2.69,0,0,1,155.2,270.33Z" transform="translate(-58.57 -173.86)"/><path class="cls-224" d="M153.66,280.15c.57-1,1.13-1.15,1.67,0,0,0-.07.13-.11.14a1.24,1.24,0,0,1-.27,0Z" transform="translate(-58.57 -173.86)"/><path class="cls-225" d="M256,247.59c0-.55.08-1.11.09-1.66,0-2.61,1.55-4.08,4.46-3.94,3.12.14,6.31-.66,9.37.54,1.2.9,3.37,1,2.83,3.34a6.21,6.21,0,0,1-6.31,2.42c-2.39-.44-4.74.41-7.13.36-.61-.35-1.4-.26-1.93-.78C257,247.25,256.48,247.64,256,247.59Z" transform="translate(-58.57 -173.86)"/><path class="cls-226" d="M272.76,245.87c.12-2-2.37-1.81-2.83-3.34C272,242.73,273.75,243.12,272.76,245.87Z" transform="translate(-58.57 -173.86)"/><path class="cls-227" d="M256,247.59l.72-1.36,1,1.31c.21,1.09-.91.69-1.27,1.15A1,1,0,0,1,256,247.59Z" transform="translate(-58.57 -173.86)"/><path class="cls-228" d="M256.42,248.69l1.27-1.15,1.63,1.11Z" transform="translate(-58.57 -173.86)"/><path class="cls-225" d="M311.75,242c4.24,0,8.43,4.07,8.38,8.16-.06,4.57-3.73,7.9-8.92,7.76-4.7-.12-8.55-2.92-8.57-7.48C302.62,245.09,305.53,242.17,311.75,242Z" transform="translate(-58.57 -173.86)"/><path class="cls-229" d="M222.81,256.69c-.22-.4-.43-.8-.64-1.2a1.49,1.49,0,0,1,1.65.72C224,256.64,223.15,256.48,222.81,256.69Z" transform="translate(-58.57 -173.86)"/><path class="cls-230" d="M178.93,360.64a3.08,3.08,0,0,0,2.76-.55c0,.36,0,.73.05,1.1q0,8.73-.05,17.46c-3.77.43-7.53.66-11.21-.56-.32-.69-1.18-.35-1.9-1.12,3.37,0,6.46-.11,9.54,0,2,.09,2.6-.67,2.51-2.58a77.89,77.89,0,0,1,0-8.37c.13-2.18-.73-2.77-2.75-2.62a15.3,15.3,0,0,1-6.6-1.11c-.69-.27-.34-.71-.24-1.12,2.53-.69,5.16.11,7.7-.46Z" transform="translate(-58.57 -173.86)"/><path class="cls-231" d="M160.37,399.38c.32-.73,1.22-1.17,1.08-2.13,0-.2,0-.4,0-.6-.18-.13-.23-.26-.17-.38s.12-.18.18-.18c1,.86,1.52,1.73,3.36.88s4.52.42,6.58,1c2.67.74,5.49.35,8,1.5l-2.3.09A57.39,57.39,0,0,1,167,398c-.87-.17-2.08-.73-2.43.42s1,1.37,1.79,1.61a82,82,0,0,0,12,2.27,4.34,4.34,0,0,0,0,.51,4,4,0,0,1-4.83.89c-2.41-1-5.09-1.16-7.51-2.08-2-.75-3.82.72-5.74.17a.94.94,0,0,1,.08-1.2Z" transform="translate(-58.57 -173.86)"/><path class="cls-232" d="M170.48,378.09a71.19,71.19,0,0,0,11.21.56c-2,1.26-4.17.2-6.21.63-3.24-.2-6.46-.43-9.7-.59-.87,0-2.19-.35-2.28.87s1.34,1.1,2.15,1.23c2.91.51,5.85.86,8.79,1.27a3.11,3.11,0,0,0,0,.53c-3.44,0-6.91.27-10.19-1.19-1.08-.48-2.23-1.09-2-2.35.34-1.52,1.61-1.25,2.92-1.05A38.52,38.52,0,0,0,170.48,378.09Z" transform="translate(-58.57 -173.86)"/><path class="cls-233" d="M155.87,386c.35-1.14-.88-2.79,1.11-3.39.13.75-.29,1.7.72,2.15.56.25,1.71.08.88,1.27-.55.79-1.17,1.09-2,.21C156.48,386,156.13,386,155.87,386Z" transform="translate(-58.57 -173.86)"/><path class="cls-234" d="M161.5,396.09c0,.19,0,.37,0,.56a11.63,11.63,0,0,1-3.37-2.25c0-.56,0-1.11,0-1.67C160.75,392.31,160.49,394.85,161.5,396.09Z" transform="translate(-58.57 -173.86)"/><path class="cls-235" d="M178.75,360.75c-2.51,1.06-5.14.18-7.7.46C173.56,360.11,176.18,360.82,178.75,360.75Z" transform="translate(-58.57 -173.86)"/><path class="cls-233" d="M155.86,388.24l-1.12,0c.13-.87-.37-2.06,1.13-2.25C155.86,386.73,155.86,387.48,155.86,388.24Z" transform="translate(-58.57 -173.86)"/><path class="cls-236" d="M158.11,361.22c.19-1.49,1.37-1,2.25-1.15C160.2,361.61,159,361.11,158.11,361.22Z" transform="translate(-58.57 -173.86)"/><path class="cls-67" d="M489.73,236.82c.83.46.64,1.27.65,2q0,11.87,0,23.73c0,.71.2,1.53-.65,2Z" transform="translate(-58.57 -173.86)"/><path class="cls-237" d="M477.83,246.44c0-3.91.07-7.82.1-11.73a40.45,40.45,0,0,1,11.73,0,.85.85,0,0,1,0,.5c-3,0-6,.07-8.94,0-1.71-.06-2.34.54-2.26,2.25.11,2.14.06,4.29,0,6.43C478.42,244.75,478.78,245.76,477.83,246.44Z" transform="translate(-58.57 -173.86)"/><path class="cls-238" d="M476.77,252.58a150.44,150.44,0,0,1-15.75,0c1.91-1.13,4-.41,6-.49,3.25-.14,6.5,0,9.76,0,.19.11.25.22.19.33S476.83,252.58,476.77,252.58Z" transform="translate(-58.57 -173.86)"/><path class="cls-239" d="M457.72,265.59l-.64,0c3.4-2.15,2-5.57,2.26-8.57.08-1.11,0-2.24,0-3.36,1.33,3.49.36,7.11.49,10.66C459.91,265.55,458.08,264.52,457.72,265.59Z" transform="translate(-58.57 -173.86)"/><path class="cls-237" d="M476.77,252.58v-.5c1.65-.14,1.71.94,1.7,2.16,0,3.61,0,7.23,0,10.84-1.19-2.93-.19-6-.56-9-.14-1.11.57-2.38-.56-3.33Z" transform="translate(-58.57 -173.86)"/><path class="cls-240" d="M429.63,265.09c-.2-.4-.58-.8-.58-1.2,0-6.72,0-13.43.58-20.15v21.35Z" transform="translate(-58.57 -173.86)"/><path class="cls-241" d="M293,315.13c.19,1.65-.47,2.36-2.19,2.23-1.55-.11-3.12,0-4.69,0-.88,0-1.93-.23-2.13,1.12.45,1.19.05,1.55-1.12,1.13-1.5-.19-1-1.37-1.12-2.25.26-1.07-.74-1.51-1.12-2.26,0-2.86,0-5.73,0-8.59,0-.82.2-1.69-.36-2.42-1.62-2.11-.42-2.5,1.49-2.48a3.18,3.18,0,0,1,.76,2.25c.08,3.05-.12,6.1.12,9.14.26.61.57,1.16,1.3,1.3a9.39,9.39,0,0,0,1.19.06c1.3,0,2.59,0,3.89,0,.61,0,1.22,0,1.83,0A2.68,2.68,0,0,1,293,315.13Z" transform="translate(-58.57 -173.86)"/><path class="cls-242" d="M294.69,290.9c2.35.54,1.19,2.59,1.68,3.93a1.57,1.57,0,0,1,0,2.25c-2.48,0-5,0-7.44,0-1.79,0-3.53,0-4.34,2.47-1-2.14.29-3.25,1.24-3.34,1.64-.14,2.81-1.43,4.4-1.36s1.67-1,1.65-2.22C292.48,291.51,293.15,290.49,294.69,290.9Z" transform="translate(-58.57 -173.86)"/><path class="cls-243" d="M281.78,284.75c.35-2.18,2.45-1,3.64-1.8,2.33-1.6,8-.29,9.82,1.76a1.67,1.67,0,0,1-1.19.55c-.9,0-1.76-.35-2.67-.29-2.64-.31-5.21.49-7.84.49A2.89,2.89,0,0,1,281.78,284.75Z" transform="translate(-58.57 -173.86)"/><path class="cls-244" d="M282.88,319.59a1,1,0,0,0,1.12-1.13c2.28-.11,3.6,2.77,6.17,2A58.24,58.24,0,0,0,279,321.69a.57.57,0,0,1-.64-.5c-.46-1.41.14-1.81,1.47-1.56C280.86,319.82,281.89,320.73,282.88,319.59Z" transform="translate(-58.57 -173.86)"/><path class="cls-245" d="M275,319.06c0-1.91,0-3.81,0-5.71q0-4.19.11-8.36a.45.45,0,0,1,.68.11c.28,1-.26,2.19.34,3.22,0,1.88,0,3.77,0,5.65a2.82,2.82,0,0,1,0,3.37c0,.77,0,1.54,0,2.31Z" transform="translate(-58.57 -173.86)"/><path class="cls-243" d="M296.37,297.08v-2.25a10.44,10.44,0,0,1,3.36-2.25.77.77,0,0,1,0,1.12,1.16,1.16,0,0,1-1.05,1.17c-2.16.75-1.13,1.84-.28,2.86.62.75,1.06,1.82,2.34,1.66a2.44,2.44,0,0,1,.14.46q.24.22.15.42c-.07.13-.13.2-.19.2C298.42,300.59,297.38,298.85,296.37,297.08Z" transform="translate(-58.57 -173.86)"/><path class="cls-246" d="M276.12,308.32c-1-1-.36-2.25-.55-3.37-.6-6.23-.13-12.47-.24-18.7.09-.44.34-.57.75-.41Z" transform="translate(-58.57 -173.86)"/><path class="cls-247" d="M294.07,284.74l1.17,0h0a4.47,4.47,0,0,1,0,4.51l-.57,1.68-2.81,1.72-2.26,1.08a1.1,1.1,0,0,1-.27-1.11,3.78,3.78,0,0,1,2.06-1.79,2.93,2.93,0,0,0,2-2.51c.06-.81,0-1.63.13-2.44A2.51,2.51,0,0,1,294.07,284.74Z" transform="translate(-58.57 -173.86)"/><path class="cls-248" d="M290.76,300.45c4.39.06,7.49,2.29,7.84,5.66a1,1,0,0,1-1.05.21c-1.21-1-2-2.49-3.51-3.18a17.46,17.46,0,0,0-2.65-1.19,1.86,1.86,0,0,1-.78-.79c0-.13,0-.25,0-.38S290.69,300.56,290.76,300.45Z" transform="translate(-58.57 -173.86)"/><path class="cls-249" d="M276.09,282.36l1.72-2.14,2.78,0c.65.16,1.47-.29,2.09.76-1.63.53-3.36.54-4.36,2.48C277.72,284.59,276.79,282.92,276.09,282.36Z" transform="translate(-58.57 -173.86)"/><path class="cls-250" d="M289.63,292.59c0,.37,0,.74,0,1.11-1.05-.09-1.86.57-2.77.85-1.31.4-3.05,1.14-4-.83l.27-.29c1.2-.54,2.62-.38,3.72-1.23a4,4,0,0,1,.82-.22A2.17,2.17,0,0,1,289.63,292.59Z" transform="translate(-58.57 -173.86)"/><path class="cls-251" d="M304.23,316.19l-1.68,1.72-1.64.62c.93-2,2.72-3.51,3.32-5.7.33-.38.59-.88,1.23-.63a.6.6,0,0,1-.06.69Z" transform="translate(-58.57 -173.86)"/><path class="cls-252" d="M300.85,300.47c0-.21,0-.41,0-.62l1.69.57c.35.57.71,1.14,1.07,1.71l.63,1.06a1.4,1.4,0,0,1,0,1.77C302,304.32,301.9,302,300.85,300.47Z" transform="translate(-58.57 -173.86)"/><path class="cls-253" d="M298.58,311.65c0,1.6-2.08,1.9-2.21,3.44h0l-2.28,0a1.06,1.06,0,0,1-.25-1.06,2.39,2.39,0,0,1,.39-.67,7.67,7.67,0,0,1,3.25-2A1.51,1.51,0,0,1,298.58,311.65Z" transform="translate(-58.57 -173.86)"/><path class="cls-254" d="M305.29,312.22l-1.06.61q0-3.4,0-6.79a.86.86,0,0,1,1.31.23C305.52,308.25,306,310.27,305.29,312.22Z" transform="translate(-58.57 -173.86)"/><path class="cls-255" d="M280.64,315.08c.88.16,1.85.29,2.12,1.31.18.69-.44.87-1,.95h-2.25a.75.75,0,0,1,0-1.13A1,1,0,0,1,280.64,315.08Z" transform="translate(-58.57 -173.86)"/><path class="cls-256" d="M281.78,284.75h1.77a2,2,0,0,1-.2,1.2,18.31,18.31,0,0,0-.08,6.52,1.4,1.4,0,0,1-.41,1.16l0,.08c-1.34-.28-1.06-1.36-1.06-2.24C281.74,289.24,281.77,287,281.78,284.75Z" transform="translate(-58.57 -173.86)"/><path class="cls-248" d="M286.25,300.45c2.25-2.44,3-2.44,4.51,0l0,0A3.55,3.55,0,0,1,286.25,300.45Z" transform="translate(-58.57 -173.86)"/><path class="cls-254" d="M302.08,309.4c-.63,0-1.08-.22-1.14-.9s.27-1.24,1.1-1.21a1.06,1.06,0,0,1,0,2.11Z" transform="translate(-58.57 -173.86)"/><path class="cls-253" d="M296.37,315.09c.91.12,2.2-.38,2.17,1.29a.85.85,0,0,1-.88.88c-1.67,0-1.17-1.26-1.29-2.17Z" transform="translate(-58.57 -173.86)"/><path class="cls-243" d="M295.26,289.22c0-1.5,0-3,0-4.51C297.08,286.21,297,287.71,295.26,289.22Z" transform="translate(-58.57 -173.86)"/><path class="cls-257" d="M281.76,303.84v-2.25l2.26-1.11c.33.39,1,.15,1.27.57a1,1,0,0,1-.1.71,11.7,11.7,0,0,1-1.73,1.33c-.37.29-.7.63-1.09.91A.53.53,0,0,1,281.76,303.84Z" transform="translate(-58.57 -173.86)"/><path class="cls-258" d="M298.58,311.65l-1.15,0a1.4,1.4,0,0,1-.32-1.11,10.89,10.89,0,0,0,.11-3.86,1,1,0,0,1,.34-.69l1,.08C298.6,308,298.59,309.8,298.58,311.65Z" transform="translate(-58.57 -173.86)"/><path class="cls-259" d="M276.14,317.34c0-1.12,0-2.24,0-3.37C277.73,315.42,277.73,316.78,276.14,317.34Z" transform="translate(-58.57 -173.86)"/><path class="cls-260" d="M299.19,320.72l-1.67.61-1.72.44c-.27-.61.28-.77.59-1.06,1.15-.3,2-1.57,3.38-1.12Z" transform="translate(-58.57 -173.86)"/><path class="cls-261" d="M285.14,301a1.17,1.17,0,0,1-1.12-.55l2.23,0,4.49,0c0,.18,0,.36,0,.55A5,5,0,0,1,285.14,301Z" transform="translate(-58.57 -173.86)"/><path class="cls-262" d="M292.45,323l-1.75-.08c.63-1.82,2.22-.77,3.35-1.11a.47.47,0,0,1,.72.1l-1.24,1Z" transform="translate(-58.57 -173.86)"/><path class="cls-263" d="M276.08,285.84h-.5c-.3-.06-.4-.38-.65-.52l-1-.72c.06-.87-.38-2,1.12-2.12C274.56,283.85,275.86,284.68,276.08,285.84Z" transform="translate(-58.57 -173.86)"/><path class="cls-264" d="M294.15,314l-.06,1.05-1.08.06-2.25,0C291.35,313.06,292.6,313.06,294.15,314Z" transform="translate(-58.57 -173.86)"/><path class="cls-265" d="M305.31,306.16l-1-.12,0-1.08c0-.59,0-1.18,0-1.77l.53.1c.2.7.41,1.41.61,2.12A.47.47,0,0,1,305.31,306.16Z" transform="translate(-58.57 -173.86)"/><path class="cls-266" d="M299.74,293.7c0-.37,0-.75,0-1.12a1.07,1.07,0,0,1,1.11-1.14l.06,1.19-.09.92Z" transform="translate(-58.57 -173.86)"/><path class="cls-267" d="M294.77,321.89l-.72-.1c.3-1.4,1.42-1,2.34-1.08l-.59,1.06Z" transform="translate(-58.57 -173.86)"/><path class="cls-241" d="M279.51,316.21v1.13c-.38.06-.91.53-1-.2S278.93,316.27,279.51,316.21Z" transform="translate(-58.57 -173.86)"/><path class="cls-268" d="M105.47,182c-2.22.61-2.92-.5-3.44-1.69a.86.86,0,0,1,.77-1.23C104.88,179,103.81,181.29,105.47,182Z" transform="translate(-58.57 -173.86)"/><path class="cls-51" d="M73.81,240.84A3.71,3.71,0,0,1,77.19,242C76.07,241.58,74.4,242.85,73.81,240.84Z" transform="translate(-58.57 -173.86)"/><path class="cls-51" d="M64.82,239.71c.89.09,2.06-.39,2.25,1.11C66.19,240.73,65,241.21,64.82,239.71Z" transform="translate(-58.57 -173.86)"/><path class="cls-51" d="M80.55,242c.59.69,2.17-.64,2.26,1.09C81.93,243,80.77,243.45,80.55,242Z" transform="translate(-58.57 -173.86)"/><path class="cls-3" d="M171.76,287.54a62.41,62.41,0,0,1-2.23-5.83c-.65-2.36-2.18-4.09-3.72-5.81-.77-.86-.89-1.6-.25-2.39a11.26,11.26,0,0,0,2.63-6.26c.1-1.15.69-1.77,2.31-1.38a6.3,6.3,0,0,0,4.58-.26c1.78.38,2.85-1,4.2-1.68.81-.42,1.39-1.38,2.5-1.11q0,45.49,0,91c0,4.53.51,4-4,4.08l-3.36.07-.35-.39c-.8-3.7-.37-7.45-.29-11.17a17.07,17.07,0,0,0-.13-4.46c-.06-4.22-.07-8.44,0-12.66.44-8,.27-16.08.09-24.12C173.68,299.21,172.65,293.38,171.76,287.54Z" transform="translate(-58.57 -173.86)"/><path class="cls-269" d="M171.76,287.54a52,52,0,0,1,2.15,17.31q.54,12.18,0,24.37l.05,12.83c.36,4.26.06,8.52.17,12.79a8.83,8.83,0,0,0,.2,3l.06.08.58.48c-1.87,0-2.19-.27-2.2-2.51,0-4.28.38-8.55.48-12.81.3-13.58.18-27.17,0-40.75A71.06,71.06,0,0,0,172,291.13,27.38,27.38,0,0,1,171.76,287.54Z" transform="translate(-58.57 -173.86)"/><path class="cls-270" d="M255.88,312.81c2.25-.72,2.3-2.57,2.3-4.45,1.32-.68,1.63.46,2,1.21,1.7,3.15,1.23,6.1-1,8.85-.16,1.4-1.26,1.11-2.15,1.2a3.14,3.14,0,0,1-2.12.56c-1.5.1-3.08-.66-4.42.92-.44.53-2.31.45-2.51-.35-.75-3.06-3.27-2.5-5.3-3-.88-.54-1.73-1.09-1.69-2.3l.22-.37c2.41.55,4.49-.81,6.75-1.13a1.13,1.13,0,0,1,1.15-.24,2.71,2.71,0,0,0,2.24.81,5.15,5.15,0,0,1,5,1.81c-.47-1.21-1.69-2.22-.55-3.52Z" transform="translate(-58.57 -173.86)"/><path class="cls-270" d="M236.81,309.45l0-1.1c-.07-4.13-1.54-8.26,0-12.39,0-.19,0-.38,0-.56,4.25-.79,5.23,0,5.27,4.21,0,.84,0,1.68,0,2.51,0,1.31-.21,2.66.6,3.86a1.25,1.25,0,0,1-.25,1.23l-.16,1.87c-.34,0-.6,0-.66-.06-.5-.74-.47-2.4-1.93-1.56a1.88,1.88,0,0,0-.18,2.91c1.2,1.4,2.1,2.8,1.8,4.72h0c-1.35.86-1.57-.67-2.31-1.1-.73,0-1-.44-1.07-1.12C237.59,311.71,238.79,310.07,236.81,309.45Z" transform="translate(-58.57 -173.86)"/><path class="cls-271" d="M242.42,307.21v-1.12c-.77-.82-.52-1.82-.48-2.78a1.67,1.67,0,0,1,.41-.72.83.83,0,0,1,1.11.17c-.22,2,.57,3.75,1.23,5.54l0,1.16C243,309.56,244,307.1,242.42,307.21Z" transform="translate(-58.57 -173.86)"/><path class="cls-272" d="M249.15,314,248,314l0-1.1c.92,0,2-.3,2.35,1A.84.84,0,0,1,249.15,314Z" transform="translate(-58.57 -173.86)"/><path class="cls-273" d="M200.7,322.91l-.42.07c-2.25.29-3.22-.4-3.51-2.66-.18-1.47,0-3-.88-4.32a70.65,70.65,0,0,1-.35-7.55c0-3.05,0-6.09,0-9.14a4.85,4.85,0,0,0-.54-2.94,3.59,3.59,0,0,1-.27-2.12c.42-1,1.12-1.93.16-3a1.63,1.63,0,0,1,.16-1.15c1.14-1,.54-2.36.8-3.55.44-1.31,1.38-1.45,2.53-1.07,1.5,1.11.46,3,1.39,4.34a2.55,2.55,0,0,1,.27.76,12.24,12.24,0,0,0-.71,5.46c.27,1.67.84,3.1,3,2.91a2.67,2.67,0,0,1,1.24.27,62.56,62.56,0,0,0,16.46,0,6.63,6.63,0,0,0,.49-.69,2.41,2.41,0,0,1,.57-.62c1.16-1.38.19-3.08.72-4.56.31-1.35,0-2.73.2-4.08,1.2-1.73.23-4,1.33-5.73l.06-1h3.26a3.42,3.42,0,0,0,1.21,2.1l-.06,3.3a65.32,65.32,0,0,1,.59,10.18c-.28,3.38.61,6.82-.56,10.15,0,4.12-.09,8.25,0,12.36,0,1.48-.54,2.47-1.75,2.72s-1.25-1.17-1.81-1.92c-1.48-2-.79-4.12-1-6.2-.09-.94.44-2.19-1.13-2.45a1.44,1.44,0,0,1-.52-1.09,12.93,12.93,0,0,1,.17-3.78c.5-1.62-.22-2.4-1.72-2.71-5.32-.05-10.63,0-15.94,0-.72,0-1.5-.22-2.16.31a2.45,2.45,0,0,1-.2.51,2.12,2.12,0,0,0-.44.05c-.59,4.61-.09,9.25-.29,13.87C201,321,201.49,322,200.7,322.91Z" transform="translate(-58.57 -173.86)"/><path class="cls-274" d="M227.81,308.33V298.21a.5.5,0,0,1,.77.15,19.8,19.8,0,0,1,.06,2.31c.14,2-.29,4,.26,6,0,.57,0,1.14,0,1.71Z" transform="translate(-58.57 -173.86)"/><path class="cls-275" d="M222.17,311.76c0,.36,0,.72,0,1.08-.32,2.82.6,5.7-.44,8.49-.51-2.63.43-5.37-.64-7.95l.12-.58C221.53,312.45,221.05,311.38,222.17,311.76Z" transform="translate(-58.57 -173.86)"/><path class="cls-231" d="M167.17,411.82l0-1.67c.64-1,1.65-1.07,2.7-1.1a20.37,20.37,0,0,1,4.4.68c4.63.88,5.31.34,5.57-4.27a3.76,3.76,0,0,1,.78-2.61c1.35.57,1.22,1.79,1.1,2.87-.25,2.26.74,4.63-.63,6.78a65.83,65.83,0,0,1-10.16-1.57c-1-.22-2.25-.81-2.66.91Z" transform="translate(-58.57 -173.86)"/><path class="cls-276" d="M241.29,302.71c0-.18,0-.37,0-.55,0-1.76.33-3.63-.16-5.24-.62-2-3.11-.28-4.33-1.52,0-.94,0-1.88,0-2.83.84-1.4,2.51-2,3.35-3.36h1.11c.44.73-.24,2,1.09,2.3,0,1.48.07,3,.1,4.44a20.33,20.33,0,0,1,0,6.74l-.08,0A.73.73,0,0,1,241.29,302.71Z" transform="translate(-58.57 -173.86)"/><path class="cls-276" d="M236.79,296c.14,2-.52,3.93-.1,6,.27,1.38.88,1.86,2.61,2.33-2.69.64-2.66,2.32-2.51,4.06l-1-.08-.06-12.86Z" transform="translate(-58.57 -173.86)"/><path class="cls-277" d="M240.16,289.21c.4,2.64-2.1,2.38-3.35,3.36C236.3,289.82,237.42,288.71,240.16,289.21Z" transform="translate(-58.57 -173.86)"/><path class="cls-278" d="M236.74,285.81c1.93-1.91,3.34-1.55,4.53,1.17A6.31,6.31,0,0,0,236.74,285.81Z" transform="translate(-58.57 -173.86)"/><path class="cls-279" d="M235.16,289.8l.47-.06c0,1.32,0,2.64,0,3.95l-.6,0Z" transform="translate(-58.57 -173.86)"/><path class="cls-280" d="M489.66,234.71H477.93c0-.2,0-.4,0-.6h11.68C489.61,234.32,489.63,234.52,489.66,234.71Z" transform="translate(-58.57 -173.86)"/><path class="cls-281" d="M266,302.72c0,.38,0,.76,0,1.14l-.09,1c-.9,1-.14,2.46-.86,3.53-1.26.91-.2,2.91-1.72,3.69s-2.27-.2-2.39-1.52A5.49,5.49,0,0,0,258.9,307c-.19-1.46-.51-2.92.34-4.3,0-1.48,0-3,.05-4.44h0a2.73,2.73,0,0,0,.44-.71c.06-2,.23-4,.38-5.93a1.63,1.63,0,0,1,.29-1.23c1.53-.3,1-1.54,1.09-2.46a4.2,4.2,0,0,1,4.41-4.2,7.07,7.07,0,0,0,2.27,4.47v1c-.95,1.84-.28,3.82-.49,5.72a7.28,7.28,0,0,1-.37,2.22C266.39,298.83,266.56,300.86,266,302.72Z" transform="translate(-58.57 -173.86)"/><path class="cls-282" d="M260.42,290.35l-.07,1.08c-.15.29-.3.28-.47,0,0-.75-.05-1.51-.08-2.26,0-.55.09-1.1.13-1.65C260.75,288.36,260.23,289.42,260.42,290.35Z" transform="translate(-58.57 -173.86)"/><path class="cls-283" d="M221.12,298.23a5.36,5.36,0,0,0-.14.54,2.44,2.44,0,0,1-1.77.73c-5.23,0-10.46.37-15.68-.21-.43-.25-1.08-.28-1-1,4.85,0,9.71,0,14.57-.06,1,0,2.07.35,2.94-.48a2.42,2.42,0,0,0,.46-.13,1.1,1.1,0,0,0,.51,0l.27.26Z" transform="translate(-58.57 -173.86)"/><path class="cls-284" d="M202.51,298.26l.58.51.2.31-.21.3-1.12,0c-2.25-1.67-2.72-5.09-1.09-7.94l.52.09c0,.55,0,1.09,0,1.64.09,1.52-.51,3.12.51,4.53Z" transform="translate(-58.57 -173.86)"/><path class="cls-285" d="M202,305.55c.67-.95,1.7-.62,2.57-.63,5.48,0,11,0,16.44.06a.75.75,0,0,1,0,1.16,2.42,2.42,0,0,1-.46-.06c-.64-.78-1.52-.55-2.33-.55Z" transform="translate(-58.57 -173.86)"/><path class="cls-286" d="M242.43,317.32c1.11,0,2.23.06,3.34,0,1.38-.07,2.41.15,2.29,1.9-.1,1.3.77,1.48,1.82,1.48,1.26,0,1.3-.41.82-1.51-.3-.72.77-.86,1.11-.58,1.6,1.38,3.5.84,5.3,1,0,.36-.07.72-.11,1.08-2.45.27-4.73,1.59-7.29,1.15a4.13,4.13,0,0,1-2.84-1.06,26,26,0,0,0-4.34-2.12.85.85,0,0,1-.35-1Z" transform="translate(-58.57 -173.86)"/><path class="cls-287" d="M259.27,307.21c1.9-.27,2.38.68,2.3,2.41-.05,1-.58,2.74,1.64,2.09.22.18.56.24.6.59l-.12,1.53-1,.14c-.8.54-.39,1.69-1.14,2.26a3,3,0,0,1-2.27,2.19,5.48,5.48,0,0,1,.6-2.33,6.39,6.39,0,0,0-1.68-7.73l-.06-1.18h0A.82.82,0,0,1,259.27,307.21Z" transform="translate(-58.57 -173.86)"/><path class="cls-288" d="M261.53,316.23c.1-.9-.4-2.09,1.13-2.26C262.55,314.85,263,316,261.53,316.23Z" transform="translate(-58.57 -173.86)"/><path class="cls-289" d="M200.7,322.91c0-4.64.06-9.27.14-13.91,0-1-.36-2.06.53-2.89q0,7.86,0,15.72C201.36,322.31,201.29,322.78,200.7,322.91Z" transform="translate(-58.57 -173.86)"/><path class="cls-231" d="M162.61,407.32h-1.09c-.39-.74-.77-1.48-1.15-2.22a1.7,1.7,0,0,1-.16-2.19C162.68,403.78,163.28,404.87,162.61,407.32Z" transform="translate(-58.57 -173.86)"/><path class="cls-290" d="M160.36,402.85v2.25c-1.9-1.5-1.53-3,0-4.49,0,.37,0,.74,0,1.11A.76.76,0,0,1,160.36,402.85Z" transform="translate(-58.57 -173.86)"/><path class="cls-291" d="M274.93,285.32l.65.52q0,9.56,0,19.11l-.47,0c-.06-1.89-.11-3.78-.16-5.66Q274.94,292.33,274.93,285.32Z" transform="translate(-58.57 -173.86)"/><path class="cls-292" d="M264.86,308.31c.37-1.13-.72-2.73,1.09-3.41.07,1.63.34,3.29-1,4.6A.86.86,0,0,1,264.86,308.31Z" transform="translate(-58.57 -173.86)"/><path class="cls-293" d="M264.86,308.31c0,.4.05.79.07,1.19-.08,1.05.06,2.19-1.12,2.8l-.6-.59C264.5,310.94,262.83,308.73,264.86,308.31Z" transform="translate(-58.57 -173.86)"/><path class="cls-294" d="M242.47,318.43c1.81.14,3.42.66,4.4,2.36-1.8.22-3-1.17-4.45-1.76l0,0q-.28-.21-.18-.39C242.34,318.49,242.4,318.43,242.47,318.43Z" transform="translate(-58.57 -173.86)"/><path class="cls-12" d="M221,306.14l0-1.16c1.4.67,3,1.09,1.47,3.28-.58.84-.24,2.31-.32,3.49l-.95,1.05C221.14,310.58,221.07,308.36,221,306.14Z" transform="translate(-58.57 -173.86)"/><path class="cls-295" d="M160.36,402.85c0-.38,0-.75,0-1.13,3.51-2.43,7-.35,10.32.39,2.57.57,5,1.66,7.67.72l2.23,0a23.15,23.15,0,0,1,0,2.5c-.18,1.71.9,4.19-.57,5-1.93,1-4.54.78-6.75,0a10.79,10.79,0,0,0-6.11-.2,3.63,3.63,0,0,0-2.82-1.17c-.44-.7-.68-1.59-1.72-1.66C162.86,405.33,161.27,404.26,160.36,402.85Z" transform="translate(-58.57 -173.86)"/><path class="cls-296" d="M198.58,285.85c-.89.08-2.05-.41-2.26,1.09a.71.71,0,0,1-1.07.05c0-.21-.07-.43-.11-.65.11-.57.05-1.22.67-1.58,1.41,0,3.17-1.38,4,1l-.24.27A.81.81,0,0,1,198.58,285.85Z" transform="translate(-58.57 -173.86)"/><path class="cls-297" d="M200.67,285.89c.05,1.5.09,3,.14,4.49a.76.76,0,0,1-1.1-.05h0a4.47,4.47,0,0,1-.05-4.45l.13-.11Z" transform="translate(-58.57 -173.86)"/><path class="cls-298" d="M305.31,306.16c0-.25.07-.5.11-.75.17.41.35.81.52,1.22,0,1.7,0,3.39,0,5.09-.18.39-.36.78-.53,1.17,0-.22-.07-.44-.11-.67C305.3,310.2,305.3,308.18,305.31,306.16Z" transform="translate(-58.57 -173.86)"/><path class="cls-299" d="M196.32,308.35l0,7.85a9.08,9.08,0,0,1,0,6.74c-.9-.47-.25-1.73-1.12-2.22l-.06-3.38,0-3.9a16.57,16.57,0,0,1-.17-5A.85.85,0,0,1,196.32,308.35Z" transform="translate(-58.57 -173.86)"/><path class="cls-300" d="M195.26,308.31c0,1.71,0,3.42-.08,5.13-.79-.85-.35-1.91-.53-2.87l0-4.49a.54.54,0,0,1,.77.14A1.78,1.78,0,0,1,195.26,308.31Z" transform="translate(-58.57 -173.86)"/><path class="cls-301" d="M228.36,298.22h-.55l0-10.21c1.05,1.42.32,3.08.59,4.6.57,1.22.14,2.52.27,3.77C228.58,297,228.81,297.66,228.36,298.22Z" transform="translate(-58.57 -173.86)"/><path class="cls-302" d="M228.39,296.51c0-1.3,0-2.61,0-3.91a2.68,2.68,0,0,1,.49,0c0,1.1.09,2.21.13,3.31,0,.21-.07.42-.1.63C228.7,296.78,228.54,296.77,228.39,296.51Z" transform="translate(-58.57 -173.86)"/><path class="cls-303" d="M242.46,302.69V296l.52,0c.23,1.88-.54,3.86.55,5.65,0,.38-.05.76-.08,1.14Z" transform="translate(-58.57 -173.86)"/><path class="cls-304" d="M194.12,296.51c0-.37-.07-.73-.11-1.1.05-2.07.09-4.13.14-6.19.17,0,.34,0,.5,0,.9,2.3.24,4.64.25,7A.51.51,0,0,1,194.12,296.51Z" transform="translate(-58.57 -173.86)"/><path class="cls-70" d="M249.15,314l1.21-.09.52-.18a3.78,3.78,0,0,0,3.89-.89h1.11c.15.85-.3,2,1.07,2.25,1.13.21,1.52,1,.9,1.8s-2.31.76-2.5.18c-.92-2.69-3-1.85-4.84-2C249.74,315.05,249.26,314.77,249.15,314Z" transform="translate(-58.57 -173.86)"/><path class="cls-31" d="M267.16,294.86c.43-1.9-1.09-4.14,1-5.73l.12,1.85c0,.54-.07,1.08-.11,1.62-.46.69,0,1.53-.36,2.24A.52.52,0,0,1,267.16,294.86Z" transform="translate(-58.57 -173.86)"/><path class="cls-305" d="M267.7,294.8c.08-.75-.24-1.6.5-2.2,0,.37.09.75.13,1.13l-.06,2.81a4.6,4.6,0,0,0-.52.06A1.47,1.47,0,0,1,267.7,294.8Z" transform="translate(-58.57 -173.86)"/><path class="cls-306" d="M199.71,290.33l1.1.05.06,1c-.15,2.72-.7,5.49,1.09,7.94-1.12.77-3.18-.59-3.32-2.4C198.46,294.69,198.21,292.35,199.71,290.33Z" transform="translate(-58.57 -173.86)"/><path class="cls-286" d="M239,314c1-.18,1.33,1.19,2.31,1.1l1.14,2.23-.09.1a1.23,1.23,0,0,1-1.62-.08c-.55-.57-1.1-1.13-1.66-1.69C239,315.1,239,314.54,239,314Z" transform="translate(-58.57 -173.86)"/><path class="cls-307" d="M228.9,306.64c-1.13-2-.26-4.13-.52-6.19.18-.26.35-.24.52,0,0,.75,0,1.49.08,2.23C229,304,228.93,305.33,228.9,306.64Z" transform="translate(-58.57 -173.86)"/><path class="cls-308" d="M228.9,300.47l-.52,0c0-.74,0-1.49,0-2.23l0-1.71.5,0C228.89,297.86,228.89,299.17,228.9,300.47Z" transform="translate(-58.57 -173.86)"/><path class="cls-306" d="M196.33,322.94l0-6.74c1.89.57,1,2.14,1,3.25.07,2,.66,3.37,2.87,3.53a4.23,4.23,0,0,1-.05.5l-.61.55c-1.52,1-2.41,0-3.28-1.06Z" transform="translate(-58.57 -173.86)"/><path class="cls-309" d="M196.34,323c1.14.2,1.92,1.53,3.28,1.06-.52,1-1.44.5-2.2.63l-.5-.11C196.73,324,196.53,323.5,196.34,323Z" transform="translate(-58.57 -173.86)"/><path class="cls-310" d="M259.27,307.21l-1.16,0c0-.95,0-1.89,0-2.83l.12-2.14.46-.12.54.56Z" transform="translate(-58.57 -173.86)"/><path class="cls-311" d="M222.23,289.25c0,1.48,0,3-.07,4.44a.47.47,0,0,1-.66.08.55.55,0,0,1,.09-.68c0-2,0-4.06,0-6.09l.53-.1A1.69,1.69,0,0,1,222.23,289.25Z" transform="translate(-58.57 -173.86)"/><path class="cls-312" d="M221.59,293.09l.07.6c.18,1.37.87,2.81-.53,4l-.14,0,.12-4.43Z" transform="translate(-58.57 -173.86)"/><path class="cls-313" d="M194.64,296.53c0-2.44,0-4.87,0-7.31l.53,0a.81.81,0,0,1,.06,1.15l0,1.12a1.69,1.69,0,0,1,0,2.26V296a1.78,1.78,0,0,1,.17,2.16.71.71,0,0,1-.84.16A1.68,1.68,0,0,1,194.64,296.53Z" transform="translate(-58.57 -173.86)"/><path class="cls-306" d="M195.24,290.34l-.06-1.15c0-.73,0-1.46.07-2.2l1.07-.05C196,288.08,197.23,289.72,195.24,290.34Z" transform="translate(-58.57 -173.86)"/><path class="cls-314" d="M194.65,298.21l.53,0a11.25,11.25,0,0,1,0,7.88l-.5,0c0-.18-.05-.36-.07-.54l0-4.51A3.31,3.31,0,0,1,194.65,298.21Z" transform="translate(-58.57 -173.86)"/><path class="cls-315" d="M194.65,298.21c0,.94,0,1.88,0,2.82l-.53,0c0-.18,0-.36-.05-.54l.06-4,.52,0C194.65,297.09,194.65,297.65,194.65,298.21Z" transform="translate(-58.57 -173.86)"/><path class="cls-316" d="M222.23,289.25c0-.78-.06-1.56-.08-2.35s0-1.82,0-2.73a1.18,1.18,0,0,1,1.12-.6C222.79,285.43,224.44,287.71,222.23,289.25Z" transform="translate(-58.57 -173.86)"/><path class="cls-106" d="M240.72,317.34l1.62.07c0,.34.09.68.13,1,0,.19,0,.38,0,.57-.57-.37-1.14-.74-1.72-1.1C240.73,317.71,240.73,317.52,240.72,317.34Z" transform="translate(-58.57 -173.86)"/><path class="cls-292" d="M266,302.72c.49-1.88-1.13-4.14,1.06-5.7a2.49,2.49,0,0,1,.11,2.41c0,.35-.06.69-.08,1C266.75,301.21,266.39,302,266,302.72Z" transform="translate(-58.57 -173.86)"/><path class="cls-317" d="M259.84,298.18l-.53,0c0-.77-.07-1.53-.11-2.3s.09-1.82.13-2.74a4,4,0,0,1,.48-.07A9.79,9.79,0,0,1,259.84,298.18Z" transform="translate(-58.57 -173.86)"/><path class="cls-318" d="M259.84,298.18l0-5.07c0-.55.05-1.11.07-1.66a3.62,3.62,0,0,0,.47,0C260.19,293.68,261,296,259.84,298.18Z" transform="translate(-58.57 -173.86)"/><path class="cls-153" d="M267.2,299.43c0-.8-.07-1.6-.11-2.41s.05-1.44.07-2.16l.54-.06c0,.6,0,1.2.05,1.8l0,2.7Z" transform="translate(-58.57 -173.86)"/><path class="cls-319" d="M163.38,253.76a10.11,10.11,0,0,1-1.29-5.26c0-1.43.19-2.69,1.75-3.05a2.39,2.39,0,0,1,2.95,2.28c.22,3.28,1,6.65-.48,9.87-1.05-.14-1.77-.55-1.46-1.8,1.29-2.45.15-5,.39-7.54a.78.78,0,0,0-1.15-.76,1.28,1.28,0,0,0-.55,1.7c.51,1.41,1,2.79.48,4.31A.5.5,0,0,1,163.38,253.76Z" transform="translate(-58.57 -173.86)"/><path class="cls-320" d="M170.45,329.15l.06-20.82c.63.32.54.92.54,1.46q0,12.61,0,25.21c0,.54.11,1.14-.54,1.45A20.58,20.58,0,0,1,170.45,329.15Z" transform="translate(-58.57 -173.86)"/><path class="cls-321" d="M155.85,276.81c-.7-.35-2.15.62-2.1-1,0-1.23,1.13-1.24,2.11-1.21s2,0,3.2,0c-.15,1.81-1.18,2.25-2.61,2.18-.38-.13-.08-.65-.45-.79A1.53,1.53,0,0,1,155.85,276.81Z" transform="translate(-58.57 -173.86)"/><path class="cls-322" d="M170.45,329.15l.06,7.3c-.06,2.64-.11,5.27-.16,7.91l-.48-.05q.06-7.57.13-15.17Z" transform="translate(-58.57 -173.86)"/><path class="cls-323" d="M164.92,255.82l1.39,1.78c.3,1.12-.08,1.52-1,.74-1.4-1.16-1.73-2.86-1.91-4.58a3,3,0,0,0,.43,0C165.08,254,165.29,254.74,164.92,255.82Z" transform="translate(-58.57 -173.86)"/><path class="cls-324" d="M155.85,276.81c.05-.52-1.06-1.11.05-1.55a2.81,2.81,0,0,1,1.08,0c-.18.51-.36,1-.53,1.54S156.05,277.36,155.85,276.81Z" transform="translate(-58.57 -173.86)"/><path class="cls-325" d="M284.57,315.06l-1.06,0c-1.46-1.41-1.22-3.23-1.18-5,.05-1.95-.23-3.91.21-5.84a.92.92,0,0,1,1.1-.65c1.55,1.72,1.08,3.81.91,5.77a9.15,9.15,0,0,0,.41,4.1,2.07,2.07,0,0,1,0,.86A1.84,1.84,0,0,1,284.57,315.06Z" transform="translate(-58.57 -173.86)"/><path class="cls-326" d="M284.63,314.61l-.09-.49c2.68-1.59,5.76-1,8.64-1.58a1.07,1.07,0,0,1,.92,1.4l0,.08a3.73,3.73,0,0,0-3.39,1.09h-1.69C287.65,314.36,286.07,315.16,284.63,314.61Z" transform="translate(-58.57 -173.86)"/><path class="cls-327" d="M282.92,303.85c.13,3.73-.64,7.52.58,11.19-.65-.07-.94-.55-1.18-1.08a39.93,39.93,0,0,1,0-10.13,1.14,1.14,0,0,1,.6-1.1A.79.79,0,0,1,282.92,303.85Z" transform="translate(-58.57 -173.86)"/><path class="cls-328" d="M282.31,303.83V314c-1.23-3.31-.25-6.75-.56-10.12Z" transform="translate(-58.57 -173.86)"/><path class="cls-329" d="M284.63,314.61c1.48.12,3.06-.58,4.44.49l-4.5,0A2.32,2.32,0,0,1,284.63,314.61Z" transform="translate(-58.57 -173.86)"/><path class="cls-330" d="M283.14,285.29c.14-.17.27-.35.41-.53,2.74-.29,5.45-1,8.23-.62.77.53,1.67.92,2,1.89a8.79,8.79,0,0,1-.05,2.05c-1.12,3.11-4,3.58-6.63,4.49l-.17,0c-3,.91-3.46.65-4.31-2.44C282.89,288.54,282,286.81,283.14,285.29Z" transform="translate(-58.57 -173.86)"/><path class="cls-331" d="M293.43,285.86l-1.65-1.72,2.29.6c0,.35,0,.7,0,1.05C293.91,286.15,293.69,286.17,293.43,285.86Z" transform="translate(-58.57 -173.86)"/><path class="cls-332" d="M287.12,292.57c2.18-1.44,4.79-2.28,6.4-4.53a1.28,1.28,0,0,1,.55.53c-.25,2.71-2.92,2.73-4.44,4Z" transform="translate(-58.57 -173.86)"/><path class="cls-333" d="M294.07,288.57l-.55-.53-.09-2.18.66-.07C294.08,286.72,294.07,287.65,294.07,288.57Z" transform="translate(-58.57 -173.86)"/><path class="cls-334" d="M282.92,303.85c0-.37,0-.75,0-1.12.72-.43,1.24-1.22,2.2-1.21a19,19,0,0,1,6.21,0,4.26,4.26,0,0,1,2.84,1.12.57.57,0,0,1-.08.79,3.49,3.49,0,0,1-2.93,0,11.06,11.06,0,0,0-7.27.35Z" transform="translate(-58.57 -173.86)"/><path class="cls-335" d="M294.11,303.54c0-.3,0-.59.05-.89a5,5,0,0,1,3.4,3.38,3.53,3.53,0,0,0-.05.56,1,1,0,0,1-.65.33A4.91,4.91,0,0,1,294.11,303.54Z" transform="translate(-58.57 -173.86)"/><path class="cls-336" d="M291.32,301.53h-6.21l0-.49h5.61Z" transform="translate(-58.57 -173.86)"/><path class="cls-337" d="M283,290.11c.34,2.41,2,2.69,4,2.48-1,1.64-2.63,1.05-4.09,1.05,0-.32,0-.64-.05-.95A2.8,2.8,0,0,1,283,290.11Z" transform="translate(-58.57 -173.86)"/><path class="cls-338" d="M294.1,313.94l-.53-1.05c1.36-1.31,1.8-3.59,4.12-3.87a2.35,2.35,0,0,1-.15,1.63c0,.35-.07.69-.11,1Z" transform="translate(-58.57 -173.86)"/><path class="cls-339" d="M283,290.11l-.15,2.57c-.54-2.49-1.31-5,.32-7.39C283.08,286.9,283,288.51,283,290.11Z" transform="translate(-58.57 -173.86)"/><path class="cls-340" d="M297.54,310.65l-.1-1.89c-.73-.56-1.17-1.2-.51-2.1l.58-.07A3.57,3.57,0,0,1,297.54,310.65Z" transform="translate(-58.57 -173.86)"/><path class="cls-341" d="M173.91,329.22V304.85c.73.53.61,1.31.61,2q0,10.13,0,20.25C174.5,327.89,174.61,328.67,173.91,329.22Z" transform="translate(-58.57 -173.86)"/><path class="cls-342" d="M174.33,357.87c-1.05-2.7-.35-5.51-.48-8.26-.12-2.51.06-5,.11-7.56C174.88,347.3,174.2,352.6,174.33,357.87Z" transform="translate(-58.57 -173.86)"/><path class="cls-11" d="M241.29,302.71h1.1c0,1.12,0,2.25,0,3.37C240.39,305.51,241.67,303.84,241.29,302.71Z" transform="translate(-58.57 -173.86)"/><path class="cls-306" d="M221,299.28a1.11,1.11,0,0,1-1.26,1.17l-15.61,0c-.67,0-1-.44-1.08-1.05v-.08A141.46,141.46,0,0,1,221,299.28Z" transform="translate(-58.57 -173.86)"/><path class="cls-306" d="M195.18,306.11v-7.88l.06-2.28c1.51.3,1.07,1.52,1.08,2.45,0,3.31,0,6.63,0,10l-1.06,0C195.24,307.58,195.21,306.84,195.18,306.11Z" transform="translate(-58.57 -173.86)"/><path class="cls-343" d="M221,299.28l-17.95,0c0-.17,0-.35,0-.53H221A1.73,1.73,0,0,1,221,299.28Z" transform="translate(-58.57 -173.86)"/><path class="cls-306" d="M199.66,285.88c0,1.48,0,3,.05,4.45-2.26-1-.64-3-1.13-4.48Z" transform="translate(-58.57 -173.86)"/><path class="cls-344" d="M221.13,297.66c.94-1.22.28-2.65.53-4h.5c-.38,1.51,1.09,3.44-1,4.54C221.12,298,221.13,297.85,221.13,297.66Z" transform="translate(-58.57 -173.86)"/><path class="cls-306" d="M195.24,293.72c0-.76,0-1.51,0-2.26C196.8,292.2,196.8,293,195.24,293.72Z" transform="translate(-58.57 -173.86)"/><path class="cls-345" d="M164.92,255.82l-1.11-2a19.46,19.46,0,0,0-1-4.22c-.53-1.17-.23-3,1.26-3.24s2,1.35,2,2.69a33.67,33.67,0,0,0,.16,5.59C166.53,255.75,166.1,256.24,164.92,255.82Z" transform="translate(-58.57 -173.86)"/><path class="cls-225" d="M296.93,306.66l.51,2.1a8.45,8.45,0,0,1-3.87,4.13,26.09,26.09,0,0,1-9,1.23c-1.94-3.32-.14-6.88-.66-10.29,1.19-2.22,3.28-1.72,5.13-1.51a38.55,38.55,0,0,1,5.1,1.22Z" transform="translate(-58.57 -173.86)"/></svg>